M48
; DRILL file {KiCad (5.1.10)-1} date 01/27/22 16:46:19
; FORMAT={-:-/ absolute / inch / decimal}
; #@! TF.CreationDate,2022-01-27T16:46:19-03:30
; #@! TF.GenerationSoftware,Kicad,Pcbnew,(5.1.10)-1
; #@! TF.FileFunction,Plated,1,4,PTH
FMAT,2
INCH
T1C0.0118
T2C0.0157
T3C0.0236
T4C0.0256
T5C0.0276
T6C0.0394
T7C0.0500
T8C0.0590
T9C0.0600
T10C0.0866
%
G90
G05
T1
X4.2964Y-5.6742
X4.3003Y-2.5757
X4.3003Y-5.4222
X4.3003Y-5.4852
X4.3003Y-5.5521
X4.3003Y-5.623
X4.3043Y-2.3238
X4.3043Y-2.3868
X4.3043Y-2.4537
X4.3043Y-2.5246
X4.3279Y-5.6742
X4.3318Y-2.5757
X4.3318Y-5.4222
X4.3318Y-5.4852
X4.3318Y-5.5521
X4.3318Y-5.623
X4.3357Y-2.3238
X4.3357Y-2.3868
X4.3357Y-2.4537
X4.3357Y-2.5246
X4.3594Y-5.6742
X4.3633Y-2.5757
X4.3633Y-5.4222
X4.3633Y-5.4852
X4.3633Y-5.5521
X4.3633Y-5.623
X4.3672Y-2.3238
X4.3672Y-2.3868
X4.3672Y-2.4537
X4.3672Y-2.5246
X4.3909Y-5.6742
X4.3948Y-2.5757
X4.3948Y-5.4222
X4.3948Y-5.4852
X4.3948Y-5.5521
X4.3948Y-5.623
X4.3987Y-2.3238
X4.3987Y-2.3868
X4.3987Y-2.4537
X4.3987Y-2.5246
X4.4224Y-5.6742
X4.4263Y-2.5757
X4.4263Y-5.4222
X4.4263Y-5.4852
X4.4263Y-5.5521
X4.4263Y-5.623
X4.4302Y-2.3238
X4.4302Y-2.3868
X4.4302Y-2.4537
X4.4302Y-2.5246
X4.4539Y-5.6742
X4.4578Y-2.5757
X4.4578Y-5.4222
X4.4578Y-5.4852
X4.4578Y-5.5521
X4.4578Y-5.623
X4.4617Y-2.3238
X4.4617Y-2.3868
X4.4617Y-2.4537
X4.4617Y-2.5246
X4.4854Y-5.6742
X4.4893Y-2.5757
X4.4893Y-5.4222
X4.4893Y-5.4852
X4.4893Y-5.5521
X4.4893Y-5.623
X4.4932Y-2.3238
X4.4932Y-2.3868
X4.4932Y-2.4537
X4.4932Y-2.5246
X4.5129Y-5.6742
X4.5169Y-2.5757
X4.5169Y-5.4222
X4.5169Y-5.4852
X4.5169Y-5.5521
X4.5169Y-5.623
X4.5208Y-2.3238
X4.5208Y-2.3868
X4.5208Y-2.4537
X4.5208Y-2.5246
X6.0611Y-3.06
X6.1372Y-2.8438
X6.1389Y-3.124
X6.1802Y-3.123
X6.1861Y-3.0809
X6.2145Y-2.9126
X6.2157Y-3.124
X6.2292Y-2.9495
X6.4736Y-2.5325
X6.5208Y-4.6023
X6.5568Y-4.5881
X6.5661Y-4.558
X6.5661Y-4.6191
X6.6094Y-2.5246
X6.83Y-4.4911
X6.8454Y-3.4216
X6.8454Y-3.457
X7.5208Y-4.3631
X7.7058Y-4.5935
X7.7767Y-4.9143
T2
X4.96Y-2.82
X4.96Y-2.86
X4.96Y-2.9
X4.96Y-2.94
X4.96Y-2.98
X4.96Y-3.02
X4.96Y-3.06
X5.2Y-2.98
X5.2693Y-2.848
X5.36Y-3.1
X5.38Y-2.78
X5.52Y-2.8481
X5.6Y-2.8521
X5.6Y-4.24
X5.6Y-4.3079
X5.64Y-4.26
X5.66Y-2.26
X5.68Y-4.3911
X5.7565Y-4.2365
X5.78Y-2.06
X5.814Y-4.34
X5.814Y-4.34
X5.86Y-2.26
X5.9Y-2.9
X5.94Y-2.94
X6.0Y-2.86
X6.0631Y-2.7319
X6.074Y-2.86
X6.18Y-4.46
X6.22Y-3.42
X6.22Y-3.56
X6.2201Y-2.8795
X6.223Y-3.343
X6.226Y-4.76
X6.26Y-4.0
X6.297Y-4.757
X6.3Y-4.3
X6.3Y-4.3679
X6.32Y-4.0
X6.34Y-4.82
X6.3606Y-4.0004
X6.38Y-4.28
X6.4Y-4.0
X6.42Y-2.06
X6.5Y-2.26
X6.58Y-3.58
X6.64Y-3.3576
X6.64Y-3.4255
X6.64Y-4.16
X6.6414Y-4.7586
X6.6428Y-4.8279
X6.68Y-3.58
X6.68Y-4.16
X6.68Y-4.2
X6.7Y-2.26
X6.72Y-3.82
X6.72Y-4.76
X6.72Y-4.8279
X6.726Y-2.98
X6.74Y-4.486
X6.78Y-3.54
X6.78Y-4.12
X6.797Y-2.983
X6.8Y-3.82
X6.8Y-4.2
X6.8Y-4.58
X6.82Y-4.14
X6.88Y-4.36
X6.8883Y-4.3966
X6.92Y-4.0
X6.94Y-3.64
X6.96Y-3.8399
X6.98Y-2.08
X7.0Y-3.86
X7.02Y-3.76
X7.02Y-3.8
X7.04Y-3.04
X7.08Y-2.56
X7.1Y-2.46
X7.1Y-2.74
X7.14Y-2.44
X7.18Y-2.42
X7.26Y-3.0
X7.28Y-3.16
X7.3Y-2.26
X7.44Y-3.08
X7.44Y-3.12
X7.44Y-3.16
X7.48Y-3.08
X7.48Y-3.12
X7.48Y-3.16
X7.5Y-2.26
X7.54Y-3.24
X7.5405Y-4.8523
X7.7Y-3.1
X7.7Y-3.28
X7.78Y-3.28
T4
X7.757Y-4.0876
X7.757Y-4.1376
X7.757Y-4.1876
X7.807Y-4.0876
X7.807Y-4.1376
X7.807Y-4.1876
T5
X4.9Y-3.96
X4.9Y-4.06
X5.8647Y-5.3209
X5.8844Y-5.38
X5.9435Y-5.3209
X5.9828Y-5.38
X6.0222Y-5.3209
X6.0616Y-5.38
X6.1009Y-5.3209
X6.16Y-5.38
X6.1797Y-5.3209
T6
X5.9066Y-2.0128
X6.0066Y-2.0128
X6.1066Y-2.0128
X6.1911Y-2.28
X6.5523Y-2.0167
X6.6523Y-2.0167
X6.7523Y-2.0167
X7.009Y-2.28
X7.1192Y-2.0246
X7.2192Y-2.0246
X7.3192Y-2.0246
X7.7531Y-2.28
T7
X7.6596Y-2.7706
T8
X4.7216Y-1.9931
X4.9184Y-1.9931
T9
X7.5346Y-2.6456
X7.5346Y-2.8956
X7.7846Y-2.6456
X7.7846Y-2.8956
T10
X4.02Y-2.02
X4.02Y-5.76
X7.76Y-2.02
X7.76Y-5.74
T3
G00X5.7702Y-5.3721
M15
G01X5.7702Y-5.3288
M16
G05
G00X5.7702Y-5.7009
M15
G01X5.7702Y-5.6694
M16
G05
G00X6.2742Y-5.3721
M15
G01X6.2742Y-5.3288
M16
G05
G00X6.2742Y-5.7009
M15
G01X6.2742Y-5.6694
M16
G05
T0
M30
