%TF.GenerationSoftware,KiCad,Pcbnew,(5.1.10)-1*%
%TF.CreationDate,2022-01-27T16:49:40-03:30*%
%TF.ProjectId,mallard,6d616c6c-6172-4642-9e6b-696361645f70,rev?*%
%TF.SameCoordinates,Original*%
%TF.FileFunction,Soldermask,Top*%
%TF.FilePolarity,Negative*%
%FSLAX46Y46*%
G04 Gerber Fmt 4.6, Leading zero omitted, Abs format (unit mm)*
G04 Created by KiCad (PCBNEW (5.1.10)-1) date 2022-01-27 16:49:40*
%MOMM*%
%LPD*%
G01*
G04 APERTURE LIST*
%ADD10R,0.650000X1.060000*%
%ADD11C,3.800000*%
%ADD12O,1.700000X1.700000*%
%ADD13R,1.700000X1.700000*%
%ADD14R,0.812800X0.279400*%
%ADD15R,1.651000X1.346200*%
%ADD16R,2.006600X2.006600*%
%ADD17C,2.006600*%
%ADD18R,1.000000X2.510000*%
%ADD19C,2.390000*%
%ADD20C,3.450000*%
%ADD21R,6.350000X7.340000*%
%ADD22R,1.000000X1.600000*%
%ADD23R,1.600000X1.600000*%
%ADD24R,0.840000X2.400000*%
%ADD25R,0.500000X0.250000*%
%ADD26O,1.400000X1.400000*%
%ADD27C,1.400000*%
%ADD28R,1.700000X0.900000*%
%ADD29C,3.810000*%
%ADD30C,3.556000*%
%ADD31R,2.510000X1.000000*%
%ADD32O,1.000000X1.000000*%
%ADD33R,1.000000X1.000000*%
%ADD34O,1.200000X2.100000*%
%ADD35O,1.200000X2.400000*%
%ADD36C,1.200000*%
%ADD37R,1.800000X3.500000*%
G04 APERTURE END LIST*
%TO.C,C3*%
G36*
G01*
X162830500Y-51786500D02*
X163305500Y-51786500D01*
G75*
G02*
X163543000Y-52024000I0J-237500D01*
G01*
X163543000Y-52624000D01*
G75*
G02*
X163305500Y-52861500I-237500J0D01*
G01*
X162830500Y-52861500D01*
G75*
G02*
X162593000Y-52624000I0J237500D01*
G01*
X162593000Y-52024000D01*
G75*
G02*
X162830500Y-51786500I237500J0D01*
G01*
G37*
G36*
G01*
X162830500Y-50061500D02*
X163305500Y-50061500D01*
G75*
G02*
X163543000Y-50299000I0J-237500D01*
G01*
X163543000Y-50899000D01*
G75*
G02*
X163305500Y-51136500I-237500J0D01*
G01*
X162830500Y-51136500D01*
G75*
G02*
X162593000Y-50899000I0J237500D01*
G01*
X162593000Y-50299000D01*
G75*
G02*
X162830500Y-50061500I237500J0D01*
G01*
G37*
%TD*%
%TO.C,C2*%
G36*
G01*
X177054500Y-51987500D02*
X177529500Y-51987500D01*
G75*
G02*
X177767000Y-52225000I0J-237500D01*
G01*
X177767000Y-52825000D01*
G75*
G02*
X177529500Y-53062500I-237500J0D01*
G01*
X177054500Y-53062500D01*
G75*
G02*
X176817000Y-52825000I0J237500D01*
G01*
X176817000Y-52225000D01*
G75*
G02*
X177054500Y-51987500I237500J0D01*
G01*
G37*
G36*
G01*
X177054500Y-50262500D02*
X177529500Y-50262500D01*
G75*
G02*
X177767000Y-50500000I0J-237500D01*
G01*
X177767000Y-51100000D01*
G75*
G02*
X177529500Y-51337500I-237500J0D01*
G01*
X177054500Y-51337500D01*
G75*
G02*
X176817000Y-51100000I0J237500D01*
G01*
X176817000Y-50500000D01*
G75*
G02*
X177054500Y-50262500I237500J0D01*
G01*
G37*
%TD*%
%TO.C,C11*%
G36*
G01*
X197374500Y-80081000D02*
X197849500Y-80081000D01*
G75*
G02*
X198087000Y-80318500I0J-237500D01*
G01*
X198087000Y-80918500D01*
G75*
G02*
X197849500Y-81156000I-237500J0D01*
G01*
X197374500Y-81156000D01*
G75*
G02*
X197137000Y-80918500I0J237500D01*
G01*
X197137000Y-80318500D01*
G75*
G02*
X197374500Y-80081000I237500J0D01*
G01*
G37*
G36*
G01*
X197374500Y-78356000D02*
X197849500Y-78356000D01*
G75*
G02*
X198087000Y-78593500I0J-237500D01*
G01*
X198087000Y-79193500D01*
G75*
G02*
X197849500Y-79431000I-237500J0D01*
G01*
X197374500Y-79431000D01*
G75*
G02*
X197137000Y-79193500I0J237500D01*
G01*
X197137000Y-78593500D01*
G75*
G02*
X197374500Y-78356000I237500J0D01*
G01*
G37*
%TD*%
D10*
%TO.C,U10*%
X193590000Y-78914000D03*
X195490000Y-78914000D03*
X195490000Y-81114000D03*
X194540000Y-81114000D03*
X193590000Y-81114000D03*
%TD*%
%TO.C,C15*%
G36*
G01*
X191278500Y-81758500D02*
X191753500Y-81758500D01*
G75*
G02*
X191991000Y-81996000I0J-237500D01*
G01*
X191991000Y-82596000D01*
G75*
G02*
X191753500Y-82833500I-237500J0D01*
G01*
X191278500Y-82833500D01*
G75*
G02*
X191041000Y-82596000I0J237500D01*
G01*
X191041000Y-81996000D01*
G75*
G02*
X191278500Y-81758500I237500J0D01*
G01*
G37*
G36*
G01*
X191278500Y-80033500D02*
X191753500Y-80033500D01*
G75*
G02*
X191991000Y-80271000I0J-237500D01*
G01*
X191991000Y-80871000D01*
G75*
G02*
X191753500Y-81108500I-237500J0D01*
G01*
X191278500Y-81108500D01*
G75*
G02*
X191041000Y-80871000I0J237500D01*
G01*
X191041000Y-80271000D01*
G75*
G02*
X191278500Y-80033500I237500J0D01*
G01*
G37*
%TD*%
%TO.C,C13*%
G36*
G01*
X196767500Y-83549500D02*
X196767500Y-83074500D01*
G75*
G02*
X197005000Y-82837000I237500J0D01*
G01*
X197605000Y-82837000D01*
G75*
G02*
X197842500Y-83074500I0J-237500D01*
G01*
X197842500Y-83549500D01*
G75*
G02*
X197605000Y-83787000I-237500J0D01*
G01*
X197005000Y-83787000D01*
G75*
G02*
X196767500Y-83549500I0J237500D01*
G01*
G37*
G36*
G01*
X195042500Y-83549500D02*
X195042500Y-83074500D01*
G75*
G02*
X195280000Y-82837000I237500J0D01*
G01*
X195880000Y-82837000D01*
G75*
G02*
X196117500Y-83074500I0J-237500D01*
G01*
X196117500Y-83549500D01*
G75*
G02*
X195880000Y-83787000I-237500J0D01*
G01*
X195280000Y-83787000D01*
G75*
G02*
X195042500Y-83549500I0J237500D01*
G01*
G37*
%TD*%
D11*
%TO.C,REF\u002A\u002A*%
X197104000Y-51308000D03*
%TD*%
%TO.C,REF\u002A\u002A*%
X197104000Y-145796000D03*
%TD*%
%TO.C,REF\u002A\u002A*%
X102108000Y-146304000D03*
%TD*%
%TO.C,REF\u002A\u002A*%
X102108000Y-51308000D03*
%TD*%
%TO.C,C20*%
G36*
G01*
X170958500Y-115133000D02*
X171433500Y-115133000D01*
G75*
G02*
X171671000Y-115370500I0J-237500D01*
G01*
X171671000Y-115970500D01*
G75*
G02*
X171433500Y-116208000I-237500J0D01*
G01*
X170958500Y-116208000D01*
G75*
G02*
X170721000Y-115970500I0J237500D01*
G01*
X170721000Y-115370500D01*
G75*
G02*
X170958500Y-115133000I237500J0D01*
G01*
G37*
G36*
G01*
X170958500Y-113408000D02*
X171433500Y-113408000D01*
G75*
G02*
X171671000Y-113645500I0J-237500D01*
G01*
X171671000Y-114245500D01*
G75*
G02*
X171433500Y-114483000I-237500J0D01*
G01*
X170958500Y-114483000D01*
G75*
G02*
X170721000Y-114245500I0J237500D01*
G01*
X170721000Y-113645500D01*
G75*
G02*
X170958500Y-113408000I237500J0D01*
G01*
G37*
%TD*%
%TO.C,D5*%
G36*
G01*
X144509500Y-112059000D02*
X144034500Y-112059000D01*
G75*
G02*
X143797000Y-111821500I0J237500D01*
G01*
X143797000Y-111246500D01*
G75*
G02*
X144034500Y-111009000I237500J0D01*
G01*
X144509500Y-111009000D01*
G75*
G02*
X144747000Y-111246500I0J-237500D01*
G01*
X144747000Y-111821500D01*
G75*
G02*
X144509500Y-112059000I-237500J0D01*
G01*
G37*
G36*
G01*
X144509500Y-113809000D02*
X144034500Y-113809000D01*
G75*
G02*
X143797000Y-113571500I0J237500D01*
G01*
X143797000Y-112996500D01*
G75*
G02*
X144034500Y-112759000I237500J0D01*
G01*
X144509500Y-112759000D01*
G75*
G02*
X144747000Y-112996500I0J-237500D01*
G01*
X144747000Y-113571500D01*
G75*
G02*
X144509500Y-113809000I-237500J0D01*
G01*
G37*
%TD*%
%TO.C,D4*%
G36*
G01*
X162668000Y-123690500D02*
X163468000Y-123690500D01*
G75*
G02*
X163718000Y-123940500I0J-250000D01*
G01*
X163718000Y-124765500D01*
G75*
G02*
X163468000Y-125015500I-250000J0D01*
G01*
X162668000Y-125015500D01*
G75*
G02*
X162418000Y-124765500I0J250000D01*
G01*
X162418000Y-123940500D01*
G75*
G02*
X162668000Y-123690500I250000J0D01*
G01*
G37*
G36*
G01*
X162668000Y-121765500D02*
X163468000Y-121765500D01*
G75*
G02*
X163718000Y-122015500I0J-250000D01*
G01*
X163718000Y-122840500D01*
G75*
G02*
X163468000Y-123090500I-250000J0D01*
G01*
X162668000Y-123090500D01*
G75*
G02*
X162418000Y-122840500I0J250000D01*
G01*
X162418000Y-122015500D01*
G75*
G02*
X162668000Y-121765500I250000J0D01*
G01*
G37*
%TD*%
%TO.C,R6*%
G36*
G01*
X152162500Y-82316500D02*
X152637500Y-82316500D01*
G75*
G02*
X152875000Y-82554000I0J-237500D01*
G01*
X152875000Y-83054000D01*
G75*
G02*
X152637500Y-83291500I-237500J0D01*
G01*
X152162500Y-83291500D01*
G75*
G02*
X151925000Y-83054000I0J237500D01*
G01*
X151925000Y-82554000D01*
G75*
G02*
X152162500Y-82316500I237500J0D01*
G01*
G37*
G36*
G01*
X152162500Y-80491500D02*
X152637500Y-80491500D01*
G75*
G02*
X152875000Y-80729000I0J-237500D01*
G01*
X152875000Y-81229000D01*
G75*
G02*
X152637500Y-81466500I-237500J0D01*
G01*
X152162500Y-81466500D01*
G75*
G02*
X151925000Y-81229000I0J237500D01*
G01*
X151925000Y-80729000D01*
G75*
G02*
X152162500Y-80491500I237500J0D01*
G01*
G37*
%TD*%
%TO.C,R16*%
G36*
G01*
X169993500Y-77961500D02*
X169993500Y-77486500D01*
G75*
G02*
X170231000Y-77249000I237500J0D01*
G01*
X170731000Y-77249000D01*
G75*
G02*
X170968500Y-77486500I0J-237500D01*
G01*
X170968500Y-77961500D01*
G75*
G02*
X170731000Y-78199000I-237500J0D01*
G01*
X170231000Y-78199000D01*
G75*
G02*
X169993500Y-77961500I0J237500D01*
G01*
G37*
G36*
G01*
X168168500Y-77961500D02*
X168168500Y-77486500D01*
G75*
G02*
X168406000Y-77249000I237500J0D01*
G01*
X168906000Y-77249000D01*
G75*
G02*
X169143500Y-77486500I0J-237500D01*
G01*
X169143500Y-77961500D01*
G75*
G02*
X168906000Y-78199000I-237500J0D01*
G01*
X168406000Y-78199000D01*
G75*
G02*
X168168500Y-77961500I0J237500D01*
G01*
G37*
%TD*%
%TO.C,R19*%
G36*
G01*
X180610500Y-81093500D02*
X181085500Y-81093500D01*
G75*
G02*
X181323000Y-81331000I0J-237500D01*
G01*
X181323000Y-81831000D01*
G75*
G02*
X181085500Y-82068500I-237500J0D01*
G01*
X180610500Y-82068500D01*
G75*
G02*
X180373000Y-81831000I0J237500D01*
G01*
X180373000Y-81331000D01*
G75*
G02*
X180610500Y-81093500I237500J0D01*
G01*
G37*
G36*
G01*
X180610500Y-79268500D02*
X181085500Y-79268500D01*
G75*
G02*
X181323000Y-79506000I0J-237500D01*
G01*
X181323000Y-80006000D01*
G75*
G02*
X181085500Y-80243500I-237500J0D01*
G01*
X180610500Y-80243500D01*
G75*
G02*
X180373000Y-80006000I0J237500D01*
G01*
X180373000Y-79506000D01*
G75*
G02*
X180610500Y-79268500I237500J0D01*
G01*
G37*
%TD*%
%TO.C,R24*%
G36*
G01*
X191140500Y-121499000D02*
X191615500Y-121499000D01*
G75*
G02*
X191853000Y-121736500I0J-237500D01*
G01*
X191853000Y-122236500D01*
G75*
G02*
X191615500Y-122474000I-237500J0D01*
G01*
X191140500Y-122474000D01*
G75*
G02*
X190903000Y-122236500I0J237500D01*
G01*
X190903000Y-121736500D01*
G75*
G02*
X191140500Y-121499000I237500J0D01*
G01*
G37*
G36*
G01*
X191140500Y-119674000D02*
X191615500Y-119674000D01*
G75*
G02*
X191853000Y-119911500I0J-237500D01*
G01*
X191853000Y-120411500D01*
G75*
G02*
X191615500Y-120649000I-237500J0D01*
G01*
X191140500Y-120649000D01*
G75*
G02*
X190903000Y-120411500I0J237500D01*
G01*
X190903000Y-119911500D01*
G75*
G02*
X191140500Y-119674000I237500J0D01*
G01*
G37*
%TD*%
%TO.C,R23*%
G36*
G01*
X160798500Y-123765500D02*
X161273500Y-123765500D01*
G75*
G02*
X161511000Y-124003000I0J-237500D01*
G01*
X161511000Y-124503000D01*
G75*
G02*
X161273500Y-124740500I-237500J0D01*
G01*
X160798500Y-124740500D01*
G75*
G02*
X160561000Y-124503000I0J237500D01*
G01*
X160561000Y-124003000D01*
G75*
G02*
X160798500Y-123765500I237500J0D01*
G01*
G37*
G36*
G01*
X160798500Y-121940500D02*
X161273500Y-121940500D01*
G75*
G02*
X161511000Y-122178000I0J-237500D01*
G01*
X161511000Y-122678000D01*
G75*
G02*
X161273500Y-122915500I-237500J0D01*
G01*
X160798500Y-122915500D01*
G75*
G02*
X160561000Y-122678000I0J237500D01*
G01*
X160561000Y-122178000D01*
G75*
G02*
X160798500Y-121940500I237500J0D01*
G01*
G37*
%TD*%
%TO.C,R18*%
G36*
G01*
X181677500Y-71865500D02*
X181677500Y-71390500D01*
G75*
G02*
X181915000Y-71153000I237500J0D01*
G01*
X182415000Y-71153000D01*
G75*
G02*
X182652500Y-71390500I0J-237500D01*
G01*
X182652500Y-71865500D01*
G75*
G02*
X182415000Y-72103000I-237500J0D01*
G01*
X181915000Y-72103000D01*
G75*
G02*
X181677500Y-71865500I0J237500D01*
G01*
G37*
G36*
G01*
X179852500Y-71865500D02*
X179852500Y-71390500D01*
G75*
G02*
X180090000Y-71153000I237500J0D01*
G01*
X180590000Y-71153000D01*
G75*
G02*
X180827500Y-71390500I0J-237500D01*
G01*
X180827500Y-71865500D01*
G75*
G02*
X180590000Y-72103000I-237500J0D01*
G01*
X180090000Y-72103000D01*
G75*
G02*
X179852500Y-71865500I0J237500D01*
G01*
G37*
%TD*%
%TO.C,R17*%
G36*
G01*
X172232500Y-74198500D02*
X172232500Y-73723500D01*
G75*
G02*
X172470000Y-73486000I237500J0D01*
G01*
X172970000Y-73486000D01*
G75*
G02*
X173207500Y-73723500I0J-237500D01*
G01*
X173207500Y-74198500D01*
G75*
G02*
X172970000Y-74436000I-237500J0D01*
G01*
X172470000Y-74436000D01*
G75*
G02*
X172232500Y-74198500I0J237500D01*
G01*
G37*
G36*
G01*
X170407500Y-74198500D02*
X170407500Y-73723500D01*
G75*
G02*
X170645000Y-73486000I237500J0D01*
G01*
X171145000Y-73486000D01*
G75*
G02*
X171382500Y-73723500I0J-237500D01*
G01*
X171382500Y-74198500D01*
G75*
G02*
X171145000Y-74436000I-237500J0D01*
G01*
X170645000Y-74436000D01*
G75*
G02*
X170407500Y-74198500I0J237500D01*
G01*
G37*
%TD*%
%TO.C,R15*%
G36*
G01*
X172957500Y-77910500D02*
X172482500Y-77910500D01*
G75*
G02*
X172245000Y-77673000I0J237500D01*
G01*
X172245000Y-77173000D01*
G75*
G02*
X172482500Y-76935500I237500J0D01*
G01*
X172957500Y-76935500D01*
G75*
G02*
X173195000Y-77173000I0J-237500D01*
G01*
X173195000Y-77673000D01*
G75*
G02*
X172957500Y-77910500I-237500J0D01*
G01*
G37*
G36*
G01*
X172957500Y-79735500D02*
X172482500Y-79735500D01*
G75*
G02*
X172245000Y-79498000I0J237500D01*
G01*
X172245000Y-78998000D01*
G75*
G02*
X172482500Y-78760500I237500J0D01*
G01*
X172957500Y-78760500D01*
G75*
G02*
X173195000Y-78998000I0J-237500D01*
G01*
X173195000Y-79498000D01*
G75*
G02*
X172957500Y-79735500I-237500J0D01*
G01*
G37*
%TD*%
%TO.C,R14*%
G36*
G01*
X180827500Y-69269000D02*
X180827500Y-69744000D01*
G75*
G02*
X180590000Y-69981500I-237500J0D01*
G01*
X180090000Y-69981500D01*
G75*
G02*
X179852500Y-69744000I0J237500D01*
G01*
X179852500Y-69269000D01*
G75*
G02*
X180090000Y-69031500I237500J0D01*
G01*
X180590000Y-69031500D01*
G75*
G02*
X180827500Y-69269000I0J-237500D01*
G01*
G37*
G36*
G01*
X182652500Y-69269000D02*
X182652500Y-69744000D01*
G75*
G02*
X182415000Y-69981500I-237500J0D01*
G01*
X181915000Y-69981500D01*
G75*
G02*
X181677500Y-69744000I0J237500D01*
G01*
X181677500Y-69269000D01*
G75*
G02*
X181915000Y-69031500I237500J0D01*
G01*
X182415000Y-69031500D01*
G75*
G02*
X182652500Y-69269000I0J-237500D01*
G01*
G37*
%TD*%
%TO.C,R13*%
G36*
G01*
X183367500Y-80026500D02*
X183367500Y-80501500D01*
G75*
G02*
X183130000Y-80739000I-237500J0D01*
G01*
X182630000Y-80739000D01*
G75*
G02*
X182392500Y-80501500I0J237500D01*
G01*
X182392500Y-80026500D01*
G75*
G02*
X182630000Y-79789000I237500J0D01*
G01*
X183130000Y-79789000D01*
G75*
G02*
X183367500Y-80026500I0J-237500D01*
G01*
G37*
G36*
G01*
X185192500Y-80026500D02*
X185192500Y-80501500D01*
G75*
G02*
X184955000Y-80739000I-237500J0D01*
G01*
X184455000Y-80739000D01*
G75*
G02*
X184217500Y-80501500I0J237500D01*
G01*
X184217500Y-80026500D01*
G75*
G02*
X184455000Y-79789000I237500J0D01*
G01*
X184955000Y-79789000D01*
G75*
G02*
X185192500Y-80026500I0J-237500D01*
G01*
G37*
%TD*%
%TO.C,R10*%
G36*
G01*
X169143500Y-83074500D02*
X169143500Y-83549500D01*
G75*
G02*
X168906000Y-83787000I-237500J0D01*
G01*
X168406000Y-83787000D01*
G75*
G02*
X168168500Y-83549500I0J237500D01*
G01*
X168168500Y-83074500D01*
G75*
G02*
X168406000Y-82837000I237500J0D01*
G01*
X168906000Y-82837000D01*
G75*
G02*
X169143500Y-83074500I0J-237500D01*
G01*
G37*
G36*
G01*
X170968500Y-83074500D02*
X170968500Y-83549500D01*
G75*
G02*
X170731000Y-83787000I-237500J0D01*
G01*
X170231000Y-83787000D01*
G75*
G02*
X169993500Y-83549500I0J237500D01*
G01*
X169993500Y-83074500D01*
G75*
G02*
X170231000Y-82837000I237500J0D01*
G01*
X170731000Y-82837000D01*
G75*
G02*
X170968500Y-83074500I0J-237500D01*
G01*
G37*
%TD*%
%TO.C,R8*%
G36*
G01*
X163151000Y-81042500D02*
X163151000Y-81517500D01*
G75*
G02*
X162913500Y-81755000I-237500J0D01*
G01*
X162413500Y-81755000D01*
G75*
G02*
X162176000Y-81517500I0J237500D01*
G01*
X162176000Y-81042500D01*
G75*
G02*
X162413500Y-80805000I237500J0D01*
G01*
X162913500Y-80805000D01*
G75*
G02*
X163151000Y-81042500I0J-237500D01*
G01*
G37*
G36*
G01*
X164976000Y-81042500D02*
X164976000Y-81517500D01*
G75*
G02*
X164738500Y-81755000I-237500J0D01*
G01*
X164238500Y-81755000D01*
G75*
G02*
X164001000Y-81517500I0J237500D01*
G01*
X164001000Y-81042500D01*
G75*
G02*
X164238500Y-80805000I237500J0D01*
G01*
X164738500Y-80805000D01*
G75*
G02*
X164976000Y-81042500I0J-237500D01*
G01*
G37*
%TD*%
%TO.C,R4*%
G36*
G01*
X152637500Y-76791000D02*
X152162500Y-76791000D01*
G75*
G02*
X151925000Y-76553500I0J237500D01*
G01*
X151925000Y-76053500D01*
G75*
G02*
X152162500Y-75816000I237500J0D01*
G01*
X152637500Y-75816000D01*
G75*
G02*
X152875000Y-76053500I0J-237500D01*
G01*
X152875000Y-76553500D01*
G75*
G02*
X152637500Y-76791000I-237500J0D01*
G01*
G37*
G36*
G01*
X152637500Y-78616000D02*
X152162500Y-78616000D01*
G75*
G02*
X151925000Y-78378500I0J237500D01*
G01*
X151925000Y-77878500D01*
G75*
G02*
X152162500Y-77641000I237500J0D01*
G01*
X152637500Y-77641000D01*
G75*
G02*
X152875000Y-77878500I0J-237500D01*
G01*
X152875000Y-78378500D01*
G75*
G02*
X152637500Y-78616000I-237500J0D01*
G01*
G37*
%TD*%
%TO.C,C9*%
G36*
G01*
X183866500Y-76437500D02*
X183866500Y-75962500D01*
G75*
G02*
X184104000Y-75725000I237500J0D01*
G01*
X184704000Y-75725000D01*
G75*
G02*
X184941500Y-75962500I0J-237500D01*
G01*
X184941500Y-76437500D01*
G75*
G02*
X184704000Y-76675000I-237500J0D01*
G01*
X184104000Y-76675000D01*
G75*
G02*
X183866500Y-76437500I0J237500D01*
G01*
G37*
G36*
G01*
X182141500Y-76437500D02*
X182141500Y-75962500D01*
G75*
G02*
X182379000Y-75725000I237500J0D01*
G01*
X182979000Y-75725000D01*
G75*
G02*
X183216500Y-75962500I0J-237500D01*
G01*
X183216500Y-76437500D01*
G75*
G02*
X182979000Y-76675000I-237500J0D01*
G01*
X182379000Y-76675000D01*
G75*
G02*
X182141500Y-76437500I0J237500D01*
G01*
G37*
%TD*%
%TO.C,C16*%
G36*
G01*
X160257500Y-109757500D02*
X159782500Y-109757500D01*
G75*
G02*
X159545000Y-109520000I0J237500D01*
G01*
X159545000Y-108920000D01*
G75*
G02*
X159782500Y-108682500I237500J0D01*
G01*
X160257500Y-108682500D01*
G75*
G02*
X160495000Y-108920000I0J-237500D01*
G01*
X160495000Y-109520000D01*
G75*
G02*
X160257500Y-109757500I-237500J0D01*
G01*
G37*
G36*
G01*
X160257500Y-111482500D02*
X159782500Y-111482500D01*
G75*
G02*
X159545000Y-111245000I0J237500D01*
G01*
X159545000Y-110645000D01*
G75*
G02*
X159782500Y-110407500I237500J0D01*
G01*
X160257500Y-110407500D01*
G75*
G02*
X160495000Y-110645000I0J-237500D01*
G01*
X160495000Y-111245000D01*
G75*
G02*
X160257500Y-111482500I-237500J0D01*
G01*
G37*
%TD*%
D12*
%TO.C,J5*%
X171508000Y-51224000D03*
X168968000Y-51224000D03*
D13*
X166428000Y-51224000D03*
%TD*%
D14*
%TO.C,U12*%
X147663800Y-108293800D03*
X147663800Y-107836600D03*
X147663800Y-107379400D03*
X147663800Y-106922200D03*
X144768200Y-106922200D03*
X144768200Y-107379400D03*
X144768200Y-107836600D03*
X144768200Y-108293800D03*
D15*
X146216000Y-107608000D03*
%TD*%
%TO.C,R25*%
G36*
G01*
X140695500Y-104918500D02*
X140695500Y-105393500D01*
G75*
G02*
X140458000Y-105631000I-237500J0D01*
G01*
X139958000Y-105631000D01*
G75*
G02*
X139720500Y-105393500I0J237500D01*
G01*
X139720500Y-104918500D01*
G75*
G02*
X139958000Y-104681000I237500J0D01*
G01*
X140458000Y-104681000D01*
G75*
G02*
X140695500Y-104918500I0J-237500D01*
G01*
G37*
G36*
G01*
X142520500Y-104918500D02*
X142520500Y-105393500D01*
G75*
G02*
X142283000Y-105631000I-237500J0D01*
G01*
X141783000Y-105631000D01*
G75*
G02*
X141545500Y-105393500I0J237500D01*
G01*
X141545500Y-104918500D01*
G75*
G02*
X141783000Y-104681000I237500J0D01*
G01*
X142283000Y-104681000D01*
G75*
G02*
X142520500Y-104918500I0J-237500D01*
G01*
G37*
%TD*%
%TO.C,L1*%
G36*
G01*
X150210001Y-108595000D02*
X149509999Y-108595000D01*
G75*
G02*
X149260000Y-108345001I0J249999D01*
G01*
X149260000Y-107794999D01*
G75*
G02*
X149509999Y-107545000I249999J0D01*
G01*
X150210001Y-107545000D01*
G75*
G02*
X150460000Y-107794999I0J-249999D01*
G01*
X150460000Y-108345001D01*
G75*
G02*
X150210001Y-108595000I-249999J0D01*
G01*
G37*
G36*
G01*
X150210001Y-110895000D02*
X149509999Y-110895000D01*
G75*
G02*
X149260000Y-110645001I0J249999D01*
G01*
X149260000Y-110094999D01*
G75*
G02*
X149509999Y-109845000I249999J0D01*
G01*
X150210001Y-109845000D01*
G75*
G02*
X150460000Y-110094999I0J-249999D01*
G01*
X150460000Y-110645001D01*
G75*
G02*
X150210001Y-110895000I-249999J0D01*
G01*
G37*
%TD*%
D12*
%TO.C,J6*%
X155108000Y-51124000D03*
X152568000Y-51124000D03*
D13*
X150028000Y-51124000D03*
%TD*%
D12*
%TO.C,J4*%
X185908000Y-51424000D03*
X183368000Y-51424000D03*
D13*
X180828000Y-51424000D03*
%TD*%
%TO.C,C23*%
G36*
G01*
X146487000Y-109998500D02*
X146487000Y-110473500D01*
G75*
G02*
X146249500Y-110711000I-237500J0D01*
G01*
X145649500Y-110711000D01*
G75*
G02*
X145412000Y-110473500I0J237500D01*
G01*
X145412000Y-109998500D01*
G75*
G02*
X145649500Y-109761000I237500J0D01*
G01*
X146249500Y-109761000D01*
G75*
G02*
X146487000Y-109998500I0J-237500D01*
G01*
G37*
G36*
G01*
X148212000Y-109998500D02*
X148212000Y-110473500D01*
G75*
G02*
X147974500Y-110711000I-237500J0D01*
G01*
X147374500Y-110711000D01*
G75*
G02*
X147137000Y-110473500I0J237500D01*
G01*
X147137000Y-109998500D01*
G75*
G02*
X147374500Y-109761000I237500J0D01*
G01*
X147974500Y-109761000D01*
G75*
G02*
X148212000Y-109998500I0J-237500D01*
G01*
G37*
%TD*%
%TO.C,C22*%
G36*
G01*
X142477500Y-108233500D02*
X142002500Y-108233500D01*
G75*
G02*
X141765000Y-107996000I0J237500D01*
G01*
X141765000Y-107396000D01*
G75*
G02*
X142002500Y-107158500I237500J0D01*
G01*
X142477500Y-107158500D01*
G75*
G02*
X142715000Y-107396000I0J-237500D01*
G01*
X142715000Y-107996000D01*
G75*
G02*
X142477500Y-108233500I-237500J0D01*
G01*
G37*
G36*
G01*
X142477500Y-109958500D02*
X142002500Y-109958500D01*
G75*
G02*
X141765000Y-109721000I0J237500D01*
G01*
X141765000Y-109121000D01*
G75*
G02*
X142002500Y-108883500I237500J0D01*
G01*
X142477500Y-108883500D01*
G75*
G02*
X142715000Y-109121000I0J-237500D01*
G01*
X142715000Y-109721000D01*
G75*
G02*
X142477500Y-109958500I-237500J0D01*
G01*
G37*
%TD*%
D16*
%TO.C,Ref2*%
X119927999Y-50624000D03*
D17*
X124928001Y-50624000D03*
%TD*%
%TO.C,C21*%
G36*
G01*
X168418500Y-86471000D02*
X168893500Y-86471000D01*
G75*
G02*
X169131000Y-86708500I0J-237500D01*
G01*
X169131000Y-87308500D01*
G75*
G02*
X168893500Y-87546000I-237500J0D01*
G01*
X168418500Y-87546000D01*
G75*
G02*
X168181000Y-87308500I0J237500D01*
G01*
X168181000Y-86708500D01*
G75*
G02*
X168418500Y-86471000I237500J0D01*
G01*
G37*
G36*
G01*
X168418500Y-84746000D02*
X168893500Y-84746000D01*
G75*
G02*
X169131000Y-84983500I0J-237500D01*
G01*
X169131000Y-85583500D01*
G75*
G02*
X168893500Y-85821000I-237500J0D01*
G01*
X168418500Y-85821000D01*
G75*
G02*
X168181000Y-85583500I0J237500D01*
G01*
X168181000Y-84983500D01*
G75*
G02*
X168418500Y-84746000I237500J0D01*
G01*
G37*
%TD*%
D18*
%TO.C,SM3*%
X190793000Y-58069000D03*
X185713000Y-58069000D03*
X188253000Y-61379000D03*
%TD*%
%TO.C,SM2*%
X170468000Y-58319000D03*
X165388000Y-58319000D03*
X167928000Y-61629000D03*
%TD*%
%TO.C,SM1*%
X149218000Y-58069000D03*
X144138000Y-58069000D03*
X146678000Y-61379000D03*
%TD*%
D19*
%TO.C,BatteryPack1*%
X120028000Y-65694000D03*
D20*
X104028000Y-74024000D03*
X120028000Y-129224000D03*
D21*
X112028000Y-140954000D03*
X112028000Y-62294000D03*
%TD*%
%TO.C,U11*%
G36*
G01*
X167178000Y-119549000D02*
X167178000Y-120874000D01*
G75*
G02*
X167103000Y-120949000I-75000J0D01*
G01*
X166953000Y-120949000D01*
G75*
G02*
X166878000Y-120874000I0J75000D01*
G01*
X166878000Y-119549000D01*
G75*
G02*
X166953000Y-119474000I75000J0D01*
G01*
X167103000Y-119474000D01*
G75*
G02*
X167178000Y-119549000I0J-75000D01*
G01*
G37*
G36*
G01*
X166678000Y-119549000D02*
X166678000Y-120874000D01*
G75*
G02*
X166603000Y-120949000I-75000J0D01*
G01*
X166453000Y-120949000D01*
G75*
G02*
X166378000Y-120874000I0J75000D01*
G01*
X166378000Y-119549000D01*
G75*
G02*
X166453000Y-119474000I75000J0D01*
G01*
X166603000Y-119474000D01*
G75*
G02*
X166678000Y-119549000I0J-75000D01*
G01*
G37*
G36*
G01*
X166178000Y-119549000D02*
X166178000Y-120874000D01*
G75*
G02*
X166103000Y-120949000I-75000J0D01*
G01*
X165953000Y-120949000D01*
G75*
G02*
X165878000Y-120874000I0J75000D01*
G01*
X165878000Y-119549000D01*
G75*
G02*
X165953000Y-119474000I75000J0D01*
G01*
X166103000Y-119474000D01*
G75*
G02*
X166178000Y-119549000I0J-75000D01*
G01*
G37*
G36*
G01*
X165678000Y-119549000D02*
X165678000Y-120874000D01*
G75*
G02*
X165603000Y-120949000I-75000J0D01*
G01*
X165453000Y-120949000D01*
G75*
G02*
X165378000Y-120874000I0J75000D01*
G01*
X165378000Y-119549000D01*
G75*
G02*
X165453000Y-119474000I75000J0D01*
G01*
X165603000Y-119474000D01*
G75*
G02*
X165678000Y-119549000I0J-75000D01*
G01*
G37*
G36*
G01*
X165178000Y-119549000D02*
X165178000Y-120874000D01*
G75*
G02*
X165103000Y-120949000I-75000J0D01*
G01*
X164953000Y-120949000D01*
G75*
G02*
X164878000Y-120874000I0J75000D01*
G01*
X164878000Y-119549000D01*
G75*
G02*
X164953000Y-119474000I75000J0D01*
G01*
X165103000Y-119474000D01*
G75*
G02*
X165178000Y-119549000I0J-75000D01*
G01*
G37*
G36*
G01*
X164678000Y-119549000D02*
X164678000Y-120874000D01*
G75*
G02*
X164603000Y-120949000I-75000J0D01*
G01*
X164453000Y-120949000D01*
G75*
G02*
X164378000Y-120874000I0J75000D01*
G01*
X164378000Y-119549000D01*
G75*
G02*
X164453000Y-119474000I75000J0D01*
G01*
X164603000Y-119474000D01*
G75*
G02*
X164678000Y-119549000I0J-75000D01*
G01*
G37*
G36*
G01*
X164178000Y-119549000D02*
X164178000Y-120874000D01*
G75*
G02*
X164103000Y-120949000I-75000J0D01*
G01*
X163953000Y-120949000D01*
G75*
G02*
X163878000Y-120874000I0J75000D01*
G01*
X163878000Y-119549000D01*
G75*
G02*
X163953000Y-119474000I75000J0D01*
G01*
X164103000Y-119474000D01*
G75*
G02*
X164178000Y-119549000I0J-75000D01*
G01*
G37*
G36*
G01*
X163678000Y-119549000D02*
X163678000Y-120874000D01*
G75*
G02*
X163603000Y-120949000I-75000J0D01*
G01*
X163453000Y-120949000D01*
G75*
G02*
X163378000Y-120874000I0J75000D01*
G01*
X163378000Y-119549000D01*
G75*
G02*
X163453000Y-119474000I75000J0D01*
G01*
X163603000Y-119474000D01*
G75*
G02*
X163678000Y-119549000I0J-75000D01*
G01*
G37*
G36*
G01*
X163178000Y-119549000D02*
X163178000Y-120874000D01*
G75*
G02*
X163103000Y-120949000I-75000J0D01*
G01*
X162953000Y-120949000D01*
G75*
G02*
X162878000Y-120874000I0J75000D01*
G01*
X162878000Y-119549000D01*
G75*
G02*
X162953000Y-119474000I75000J0D01*
G01*
X163103000Y-119474000D01*
G75*
G02*
X163178000Y-119549000I0J-75000D01*
G01*
G37*
G36*
G01*
X162678000Y-119549000D02*
X162678000Y-120874000D01*
G75*
G02*
X162603000Y-120949000I-75000J0D01*
G01*
X162453000Y-120949000D01*
G75*
G02*
X162378000Y-120874000I0J75000D01*
G01*
X162378000Y-119549000D01*
G75*
G02*
X162453000Y-119474000I75000J0D01*
G01*
X162603000Y-119474000D01*
G75*
G02*
X162678000Y-119549000I0J-75000D01*
G01*
G37*
G36*
G01*
X162178000Y-119549000D02*
X162178000Y-120874000D01*
G75*
G02*
X162103000Y-120949000I-75000J0D01*
G01*
X161953000Y-120949000D01*
G75*
G02*
X161878000Y-120874000I0J75000D01*
G01*
X161878000Y-119549000D01*
G75*
G02*
X161953000Y-119474000I75000J0D01*
G01*
X162103000Y-119474000D01*
G75*
G02*
X162178000Y-119549000I0J-75000D01*
G01*
G37*
G36*
G01*
X161678000Y-119549000D02*
X161678000Y-120874000D01*
G75*
G02*
X161603000Y-120949000I-75000J0D01*
G01*
X161453000Y-120949000D01*
G75*
G02*
X161378000Y-120874000I0J75000D01*
G01*
X161378000Y-119549000D01*
G75*
G02*
X161453000Y-119474000I75000J0D01*
G01*
X161603000Y-119474000D01*
G75*
G02*
X161678000Y-119549000I0J-75000D01*
G01*
G37*
G36*
G01*
X160853000Y-118724000D02*
X160853000Y-118874000D01*
G75*
G02*
X160778000Y-118949000I-75000J0D01*
G01*
X159453000Y-118949000D01*
G75*
G02*
X159378000Y-118874000I0J75000D01*
G01*
X159378000Y-118724000D01*
G75*
G02*
X159453000Y-118649000I75000J0D01*
G01*
X160778000Y-118649000D01*
G75*
G02*
X160853000Y-118724000I0J-75000D01*
G01*
G37*
G36*
G01*
X160853000Y-118224000D02*
X160853000Y-118374000D01*
G75*
G02*
X160778000Y-118449000I-75000J0D01*
G01*
X159453000Y-118449000D01*
G75*
G02*
X159378000Y-118374000I0J75000D01*
G01*
X159378000Y-118224000D01*
G75*
G02*
X159453000Y-118149000I75000J0D01*
G01*
X160778000Y-118149000D01*
G75*
G02*
X160853000Y-118224000I0J-75000D01*
G01*
G37*
G36*
G01*
X160853000Y-117724000D02*
X160853000Y-117874000D01*
G75*
G02*
X160778000Y-117949000I-75000J0D01*
G01*
X159453000Y-117949000D01*
G75*
G02*
X159378000Y-117874000I0J75000D01*
G01*
X159378000Y-117724000D01*
G75*
G02*
X159453000Y-117649000I75000J0D01*
G01*
X160778000Y-117649000D01*
G75*
G02*
X160853000Y-117724000I0J-75000D01*
G01*
G37*
G36*
G01*
X160853000Y-117224000D02*
X160853000Y-117374000D01*
G75*
G02*
X160778000Y-117449000I-75000J0D01*
G01*
X159453000Y-117449000D01*
G75*
G02*
X159378000Y-117374000I0J75000D01*
G01*
X159378000Y-117224000D01*
G75*
G02*
X159453000Y-117149000I75000J0D01*
G01*
X160778000Y-117149000D01*
G75*
G02*
X160853000Y-117224000I0J-75000D01*
G01*
G37*
G36*
G01*
X160853000Y-116724000D02*
X160853000Y-116874000D01*
G75*
G02*
X160778000Y-116949000I-75000J0D01*
G01*
X159453000Y-116949000D01*
G75*
G02*
X159378000Y-116874000I0J75000D01*
G01*
X159378000Y-116724000D01*
G75*
G02*
X159453000Y-116649000I75000J0D01*
G01*
X160778000Y-116649000D01*
G75*
G02*
X160853000Y-116724000I0J-75000D01*
G01*
G37*
G36*
G01*
X160853000Y-116224000D02*
X160853000Y-116374000D01*
G75*
G02*
X160778000Y-116449000I-75000J0D01*
G01*
X159453000Y-116449000D01*
G75*
G02*
X159378000Y-116374000I0J75000D01*
G01*
X159378000Y-116224000D01*
G75*
G02*
X159453000Y-116149000I75000J0D01*
G01*
X160778000Y-116149000D01*
G75*
G02*
X160853000Y-116224000I0J-75000D01*
G01*
G37*
G36*
G01*
X160853000Y-115724000D02*
X160853000Y-115874000D01*
G75*
G02*
X160778000Y-115949000I-75000J0D01*
G01*
X159453000Y-115949000D01*
G75*
G02*
X159378000Y-115874000I0J75000D01*
G01*
X159378000Y-115724000D01*
G75*
G02*
X159453000Y-115649000I75000J0D01*
G01*
X160778000Y-115649000D01*
G75*
G02*
X160853000Y-115724000I0J-75000D01*
G01*
G37*
G36*
G01*
X160853000Y-115224000D02*
X160853000Y-115374000D01*
G75*
G02*
X160778000Y-115449000I-75000J0D01*
G01*
X159453000Y-115449000D01*
G75*
G02*
X159378000Y-115374000I0J75000D01*
G01*
X159378000Y-115224000D01*
G75*
G02*
X159453000Y-115149000I75000J0D01*
G01*
X160778000Y-115149000D01*
G75*
G02*
X160853000Y-115224000I0J-75000D01*
G01*
G37*
G36*
G01*
X160853000Y-114724000D02*
X160853000Y-114874000D01*
G75*
G02*
X160778000Y-114949000I-75000J0D01*
G01*
X159453000Y-114949000D01*
G75*
G02*
X159378000Y-114874000I0J75000D01*
G01*
X159378000Y-114724000D01*
G75*
G02*
X159453000Y-114649000I75000J0D01*
G01*
X160778000Y-114649000D01*
G75*
G02*
X160853000Y-114724000I0J-75000D01*
G01*
G37*
G36*
G01*
X160853000Y-114224000D02*
X160853000Y-114374000D01*
G75*
G02*
X160778000Y-114449000I-75000J0D01*
G01*
X159453000Y-114449000D01*
G75*
G02*
X159378000Y-114374000I0J75000D01*
G01*
X159378000Y-114224000D01*
G75*
G02*
X159453000Y-114149000I75000J0D01*
G01*
X160778000Y-114149000D01*
G75*
G02*
X160853000Y-114224000I0J-75000D01*
G01*
G37*
G36*
G01*
X160853000Y-113724000D02*
X160853000Y-113874000D01*
G75*
G02*
X160778000Y-113949000I-75000J0D01*
G01*
X159453000Y-113949000D01*
G75*
G02*
X159378000Y-113874000I0J75000D01*
G01*
X159378000Y-113724000D01*
G75*
G02*
X159453000Y-113649000I75000J0D01*
G01*
X160778000Y-113649000D01*
G75*
G02*
X160853000Y-113724000I0J-75000D01*
G01*
G37*
G36*
G01*
X160853000Y-113224000D02*
X160853000Y-113374000D01*
G75*
G02*
X160778000Y-113449000I-75000J0D01*
G01*
X159453000Y-113449000D01*
G75*
G02*
X159378000Y-113374000I0J75000D01*
G01*
X159378000Y-113224000D01*
G75*
G02*
X159453000Y-113149000I75000J0D01*
G01*
X160778000Y-113149000D01*
G75*
G02*
X160853000Y-113224000I0J-75000D01*
G01*
G37*
G36*
G01*
X161678000Y-111224000D02*
X161678000Y-112549000D01*
G75*
G02*
X161603000Y-112624000I-75000J0D01*
G01*
X161453000Y-112624000D01*
G75*
G02*
X161378000Y-112549000I0J75000D01*
G01*
X161378000Y-111224000D01*
G75*
G02*
X161453000Y-111149000I75000J0D01*
G01*
X161603000Y-111149000D01*
G75*
G02*
X161678000Y-111224000I0J-75000D01*
G01*
G37*
G36*
G01*
X162178000Y-111224000D02*
X162178000Y-112549000D01*
G75*
G02*
X162103000Y-112624000I-75000J0D01*
G01*
X161953000Y-112624000D01*
G75*
G02*
X161878000Y-112549000I0J75000D01*
G01*
X161878000Y-111224000D01*
G75*
G02*
X161953000Y-111149000I75000J0D01*
G01*
X162103000Y-111149000D01*
G75*
G02*
X162178000Y-111224000I0J-75000D01*
G01*
G37*
G36*
G01*
X162678000Y-111224000D02*
X162678000Y-112549000D01*
G75*
G02*
X162603000Y-112624000I-75000J0D01*
G01*
X162453000Y-112624000D01*
G75*
G02*
X162378000Y-112549000I0J75000D01*
G01*
X162378000Y-111224000D01*
G75*
G02*
X162453000Y-111149000I75000J0D01*
G01*
X162603000Y-111149000D01*
G75*
G02*
X162678000Y-111224000I0J-75000D01*
G01*
G37*
G36*
G01*
X163178000Y-111224000D02*
X163178000Y-112549000D01*
G75*
G02*
X163103000Y-112624000I-75000J0D01*
G01*
X162953000Y-112624000D01*
G75*
G02*
X162878000Y-112549000I0J75000D01*
G01*
X162878000Y-111224000D01*
G75*
G02*
X162953000Y-111149000I75000J0D01*
G01*
X163103000Y-111149000D01*
G75*
G02*
X163178000Y-111224000I0J-75000D01*
G01*
G37*
G36*
G01*
X163678000Y-111224000D02*
X163678000Y-112549000D01*
G75*
G02*
X163603000Y-112624000I-75000J0D01*
G01*
X163453000Y-112624000D01*
G75*
G02*
X163378000Y-112549000I0J75000D01*
G01*
X163378000Y-111224000D01*
G75*
G02*
X163453000Y-111149000I75000J0D01*
G01*
X163603000Y-111149000D01*
G75*
G02*
X163678000Y-111224000I0J-75000D01*
G01*
G37*
G36*
G01*
X164178000Y-111224000D02*
X164178000Y-112549000D01*
G75*
G02*
X164103000Y-112624000I-75000J0D01*
G01*
X163953000Y-112624000D01*
G75*
G02*
X163878000Y-112549000I0J75000D01*
G01*
X163878000Y-111224000D01*
G75*
G02*
X163953000Y-111149000I75000J0D01*
G01*
X164103000Y-111149000D01*
G75*
G02*
X164178000Y-111224000I0J-75000D01*
G01*
G37*
G36*
G01*
X164678000Y-111224000D02*
X164678000Y-112549000D01*
G75*
G02*
X164603000Y-112624000I-75000J0D01*
G01*
X164453000Y-112624000D01*
G75*
G02*
X164378000Y-112549000I0J75000D01*
G01*
X164378000Y-111224000D01*
G75*
G02*
X164453000Y-111149000I75000J0D01*
G01*
X164603000Y-111149000D01*
G75*
G02*
X164678000Y-111224000I0J-75000D01*
G01*
G37*
G36*
G01*
X165178000Y-111224000D02*
X165178000Y-112549000D01*
G75*
G02*
X165103000Y-112624000I-75000J0D01*
G01*
X164953000Y-112624000D01*
G75*
G02*
X164878000Y-112549000I0J75000D01*
G01*
X164878000Y-111224000D01*
G75*
G02*
X164953000Y-111149000I75000J0D01*
G01*
X165103000Y-111149000D01*
G75*
G02*
X165178000Y-111224000I0J-75000D01*
G01*
G37*
G36*
G01*
X165678000Y-111224000D02*
X165678000Y-112549000D01*
G75*
G02*
X165603000Y-112624000I-75000J0D01*
G01*
X165453000Y-112624000D01*
G75*
G02*
X165378000Y-112549000I0J75000D01*
G01*
X165378000Y-111224000D01*
G75*
G02*
X165453000Y-111149000I75000J0D01*
G01*
X165603000Y-111149000D01*
G75*
G02*
X165678000Y-111224000I0J-75000D01*
G01*
G37*
G36*
G01*
X166178000Y-111224000D02*
X166178000Y-112549000D01*
G75*
G02*
X166103000Y-112624000I-75000J0D01*
G01*
X165953000Y-112624000D01*
G75*
G02*
X165878000Y-112549000I0J75000D01*
G01*
X165878000Y-111224000D01*
G75*
G02*
X165953000Y-111149000I75000J0D01*
G01*
X166103000Y-111149000D01*
G75*
G02*
X166178000Y-111224000I0J-75000D01*
G01*
G37*
G36*
G01*
X166678000Y-111224000D02*
X166678000Y-112549000D01*
G75*
G02*
X166603000Y-112624000I-75000J0D01*
G01*
X166453000Y-112624000D01*
G75*
G02*
X166378000Y-112549000I0J75000D01*
G01*
X166378000Y-111224000D01*
G75*
G02*
X166453000Y-111149000I75000J0D01*
G01*
X166603000Y-111149000D01*
G75*
G02*
X166678000Y-111224000I0J-75000D01*
G01*
G37*
G36*
G01*
X167178000Y-111224000D02*
X167178000Y-112549000D01*
G75*
G02*
X167103000Y-112624000I-75000J0D01*
G01*
X166953000Y-112624000D01*
G75*
G02*
X166878000Y-112549000I0J75000D01*
G01*
X166878000Y-111224000D01*
G75*
G02*
X166953000Y-111149000I75000J0D01*
G01*
X167103000Y-111149000D01*
G75*
G02*
X167178000Y-111224000I0J-75000D01*
G01*
G37*
G36*
G01*
X169178000Y-113224000D02*
X169178000Y-113374000D01*
G75*
G02*
X169103000Y-113449000I-75000J0D01*
G01*
X167778000Y-113449000D01*
G75*
G02*
X167703000Y-113374000I0J75000D01*
G01*
X167703000Y-113224000D01*
G75*
G02*
X167778000Y-113149000I75000J0D01*
G01*
X169103000Y-113149000D01*
G75*
G02*
X169178000Y-113224000I0J-75000D01*
G01*
G37*
G36*
G01*
X169178000Y-113724000D02*
X169178000Y-113874000D01*
G75*
G02*
X169103000Y-113949000I-75000J0D01*
G01*
X167778000Y-113949000D01*
G75*
G02*
X167703000Y-113874000I0J75000D01*
G01*
X167703000Y-113724000D01*
G75*
G02*
X167778000Y-113649000I75000J0D01*
G01*
X169103000Y-113649000D01*
G75*
G02*
X169178000Y-113724000I0J-75000D01*
G01*
G37*
G36*
G01*
X169178000Y-114224000D02*
X169178000Y-114374000D01*
G75*
G02*
X169103000Y-114449000I-75000J0D01*
G01*
X167778000Y-114449000D01*
G75*
G02*
X167703000Y-114374000I0J75000D01*
G01*
X167703000Y-114224000D01*
G75*
G02*
X167778000Y-114149000I75000J0D01*
G01*
X169103000Y-114149000D01*
G75*
G02*
X169178000Y-114224000I0J-75000D01*
G01*
G37*
G36*
G01*
X169178000Y-114724000D02*
X169178000Y-114874000D01*
G75*
G02*
X169103000Y-114949000I-75000J0D01*
G01*
X167778000Y-114949000D01*
G75*
G02*
X167703000Y-114874000I0J75000D01*
G01*
X167703000Y-114724000D01*
G75*
G02*
X167778000Y-114649000I75000J0D01*
G01*
X169103000Y-114649000D01*
G75*
G02*
X169178000Y-114724000I0J-75000D01*
G01*
G37*
G36*
G01*
X169178000Y-115224000D02*
X169178000Y-115374000D01*
G75*
G02*
X169103000Y-115449000I-75000J0D01*
G01*
X167778000Y-115449000D01*
G75*
G02*
X167703000Y-115374000I0J75000D01*
G01*
X167703000Y-115224000D01*
G75*
G02*
X167778000Y-115149000I75000J0D01*
G01*
X169103000Y-115149000D01*
G75*
G02*
X169178000Y-115224000I0J-75000D01*
G01*
G37*
G36*
G01*
X169178000Y-115724000D02*
X169178000Y-115874000D01*
G75*
G02*
X169103000Y-115949000I-75000J0D01*
G01*
X167778000Y-115949000D01*
G75*
G02*
X167703000Y-115874000I0J75000D01*
G01*
X167703000Y-115724000D01*
G75*
G02*
X167778000Y-115649000I75000J0D01*
G01*
X169103000Y-115649000D01*
G75*
G02*
X169178000Y-115724000I0J-75000D01*
G01*
G37*
G36*
G01*
X169178000Y-116224000D02*
X169178000Y-116374000D01*
G75*
G02*
X169103000Y-116449000I-75000J0D01*
G01*
X167778000Y-116449000D01*
G75*
G02*
X167703000Y-116374000I0J75000D01*
G01*
X167703000Y-116224000D01*
G75*
G02*
X167778000Y-116149000I75000J0D01*
G01*
X169103000Y-116149000D01*
G75*
G02*
X169178000Y-116224000I0J-75000D01*
G01*
G37*
G36*
G01*
X169178000Y-116724000D02*
X169178000Y-116874000D01*
G75*
G02*
X169103000Y-116949000I-75000J0D01*
G01*
X167778000Y-116949000D01*
G75*
G02*
X167703000Y-116874000I0J75000D01*
G01*
X167703000Y-116724000D01*
G75*
G02*
X167778000Y-116649000I75000J0D01*
G01*
X169103000Y-116649000D01*
G75*
G02*
X169178000Y-116724000I0J-75000D01*
G01*
G37*
G36*
G01*
X169178000Y-117224000D02*
X169178000Y-117374000D01*
G75*
G02*
X169103000Y-117449000I-75000J0D01*
G01*
X167778000Y-117449000D01*
G75*
G02*
X167703000Y-117374000I0J75000D01*
G01*
X167703000Y-117224000D01*
G75*
G02*
X167778000Y-117149000I75000J0D01*
G01*
X169103000Y-117149000D01*
G75*
G02*
X169178000Y-117224000I0J-75000D01*
G01*
G37*
G36*
G01*
X169178000Y-117724000D02*
X169178000Y-117874000D01*
G75*
G02*
X169103000Y-117949000I-75000J0D01*
G01*
X167778000Y-117949000D01*
G75*
G02*
X167703000Y-117874000I0J75000D01*
G01*
X167703000Y-117724000D01*
G75*
G02*
X167778000Y-117649000I75000J0D01*
G01*
X169103000Y-117649000D01*
G75*
G02*
X169178000Y-117724000I0J-75000D01*
G01*
G37*
G36*
G01*
X169178000Y-118224000D02*
X169178000Y-118374000D01*
G75*
G02*
X169103000Y-118449000I-75000J0D01*
G01*
X167778000Y-118449000D01*
G75*
G02*
X167703000Y-118374000I0J75000D01*
G01*
X167703000Y-118224000D01*
G75*
G02*
X167778000Y-118149000I75000J0D01*
G01*
X169103000Y-118149000D01*
G75*
G02*
X169178000Y-118224000I0J-75000D01*
G01*
G37*
G36*
G01*
X169178000Y-118724000D02*
X169178000Y-118874000D01*
G75*
G02*
X169103000Y-118949000I-75000J0D01*
G01*
X167778000Y-118949000D01*
G75*
G02*
X167703000Y-118874000I0J75000D01*
G01*
X167703000Y-118724000D01*
G75*
G02*
X167778000Y-118649000I75000J0D01*
G01*
X169103000Y-118649000D01*
G75*
G02*
X169178000Y-118724000I0J-75000D01*
G01*
G37*
%TD*%
%TO.C,U9*%
G36*
G01*
X179915000Y-74123000D02*
X179915000Y-73923000D01*
G75*
G02*
X180015000Y-73823000I100000J0D01*
G01*
X181290000Y-73823000D01*
G75*
G02*
X181390000Y-73923000I0J-100000D01*
G01*
X181390000Y-74123000D01*
G75*
G02*
X181290000Y-74223000I-100000J0D01*
G01*
X180015000Y-74223000D01*
G75*
G02*
X179915000Y-74123000I0J100000D01*
G01*
G37*
G36*
G01*
X179915000Y-74773000D02*
X179915000Y-74573000D01*
G75*
G02*
X180015000Y-74473000I100000J0D01*
G01*
X181290000Y-74473000D01*
G75*
G02*
X181390000Y-74573000I0J-100000D01*
G01*
X181390000Y-74773000D01*
G75*
G02*
X181290000Y-74873000I-100000J0D01*
G01*
X180015000Y-74873000D01*
G75*
G02*
X179915000Y-74773000I0J100000D01*
G01*
G37*
G36*
G01*
X179915000Y-75423000D02*
X179915000Y-75223000D01*
G75*
G02*
X180015000Y-75123000I100000J0D01*
G01*
X181290000Y-75123000D01*
G75*
G02*
X181390000Y-75223000I0J-100000D01*
G01*
X181390000Y-75423000D01*
G75*
G02*
X181290000Y-75523000I-100000J0D01*
G01*
X180015000Y-75523000D01*
G75*
G02*
X179915000Y-75423000I0J100000D01*
G01*
G37*
G36*
G01*
X179915000Y-76073000D02*
X179915000Y-75873000D01*
G75*
G02*
X180015000Y-75773000I100000J0D01*
G01*
X181290000Y-75773000D01*
G75*
G02*
X181390000Y-75873000I0J-100000D01*
G01*
X181390000Y-76073000D01*
G75*
G02*
X181290000Y-76173000I-100000J0D01*
G01*
X180015000Y-76173000D01*
G75*
G02*
X179915000Y-76073000I0J100000D01*
G01*
G37*
G36*
G01*
X179915000Y-76723000D02*
X179915000Y-76523000D01*
G75*
G02*
X180015000Y-76423000I100000J0D01*
G01*
X181290000Y-76423000D01*
G75*
G02*
X181390000Y-76523000I0J-100000D01*
G01*
X181390000Y-76723000D01*
G75*
G02*
X181290000Y-76823000I-100000J0D01*
G01*
X180015000Y-76823000D01*
G75*
G02*
X179915000Y-76723000I0J100000D01*
G01*
G37*
G36*
G01*
X179915000Y-77373000D02*
X179915000Y-77173000D01*
G75*
G02*
X180015000Y-77073000I100000J0D01*
G01*
X181290000Y-77073000D01*
G75*
G02*
X181390000Y-77173000I0J-100000D01*
G01*
X181390000Y-77373000D01*
G75*
G02*
X181290000Y-77473000I-100000J0D01*
G01*
X180015000Y-77473000D01*
G75*
G02*
X179915000Y-77373000I0J100000D01*
G01*
G37*
G36*
G01*
X179915000Y-78023000D02*
X179915000Y-77823000D01*
G75*
G02*
X180015000Y-77723000I100000J0D01*
G01*
X181290000Y-77723000D01*
G75*
G02*
X181390000Y-77823000I0J-100000D01*
G01*
X181390000Y-78023000D01*
G75*
G02*
X181290000Y-78123000I-100000J0D01*
G01*
X180015000Y-78123000D01*
G75*
G02*
X179915000Y-78023000I0J100000D01*
G01*
G37*
G36*
G01*
X174190000Y-78023000D02*
X174190000Y-77823000D01*
G75*
G02*
X174290000Y-77723000I100000J0D01*
G01*
X175565000Y-77723000D01*
G75*
G02*
X175665000Y-77823000I0J-100000D01*
G01*
X175665000Y-78023000D01*
G75*
G02*
X175565000Y-78123000I-100000J0D01*
G01*
X174290000Y-78123000D01*
G75*
G02*
X174190000Y-78023000I0J100000D01*
G01*
G37*
G36*
G01*
X174190000Y-77373000D02*
X174190000Y-77173000D01*
G75*
G02*
X174290000Y-77073000I100000J0D01*
G01*
X175565000Y-77073000D01*
G75*
G02*
X175665000Y-77173000I0J-100000D01*
G01*
X175665000Y-77373000D01*
G75*
G02*
X175565000Y-77473000I-100000J0D01*
G01*
X174290000Y-77473000D01*
G75*
G02*
X174190000Y-77373000I0J100000D01*
G01*
G37*
G36*
G01*
X174190000Y-76723000D02*
X174190000Y-76523000D01*
G75*
G02*
X174290000Y-76423000I100000J0D01*
G01*
X175565000Y-76423000D01*
G75*
G02*
X175665000Y-76523000I0J-100000D01*
G01*
X175665000Y-76723000D01*
G75*
G02*
X175565000Y-76823000I-100000J0D01*
G01*
X174290000Y-76823000D01*
G75*
G02*
X174190000Y-76723000I0J100000D01*
G01*
G37*
G36*
G01*
X174190000Y-76073000D02*
X174190000Y-75873000D01*
G75*
G02*
X174290000Y-75773000I100000J0D01*
G01*
X175565000Y-75773000D01*
G75*
G02*
X175665000Y-75873000I0J-100000D01*
G01*
X175665000Y-76073000D01*
G75*
G02*
X175565000Y-76173000I-100000J0D01*
G01*
X174290000Y-76173000D01*
G75*
G02*
X174190000Y-76073000I0J100000D01*
G01*
G37*
G36*
G01*
X174190000Y-75423000D02*
X174190000Y-75223000D01*
G75*
G02*
X174290000Y-75123000I100000J0D01*
G01*
X175565000Y-75123000D01*
G75*
G02*
X175665000Y-75223000I0J-100000D01*
G01*
X175665000Y-75423000D01*
G75*
G02*
X175565000Y-75523000I-100000J0D01*
G01*
X174290000Y-75523000D01*
G75*
G02*
X174190000Y-75423000I0J100000D01*
G01*
G37*
G36*
G01*
X174190000Y-74773000D02*
X174190000Y-74573000D01*
G75*
G02*
X174290000Y-74473000I100000J0D01*
G01*
X175565000Y-74473000D01*
G75*
G02*
X175665000Y-74573000I0J-100000D01*
G01*
X175665000Y-74773000D01*
G75*
G02*
X175565000Y-74873000I-100000J0D01*
G01*
X174290000Y-74873000D01*
G75*
G02*
X174190000Y-74773000I0J100000D01*
G01*
G37*
G36*
G01*
X174190000Y-74123000D02*
X174190000Y-73923000D01*
G75*
G02*
X174290000Y-73823000I100000J0D01*
G01*
X175565000Y-73823000D01*
G75*
G02*
X175665000Y-73923000I0J-100000D01*
G01*
X175665000Y-74123000D01*
G75*
G02*
X175565000Y-74223000I-100000J0D01*
G01*
X174290000Y-74223000D01*
G75*
G02*
X174190000Y-74123000I0J100000D01*
G01*
G37*
%TD*%
D22*
%TO.C,U8*%
X173872000Y-87383000D03*
G36*
G01*
X173172000Y-87926750D02*
X173172000Y-88139250D01*
G75*
G02*
X173078250Y-88233000I-93750J0D01*
G01*
X172890750Y-88233000D01*
G75*
G02*
X172797000Y-88139250I0J93750D01*
G01*
X172797000Y-87926750D01*
G75*
G02*
X172890750Y-87833000I93750J0D01*
G01*
X173078250Y-87833000D01*
G75*
G02*
X173172000Y-87926750I0J-93750D01*
G01*
G37*
G36*
G01*
X173172000Y-87276750D02*
X173172000Y-87489250D01*
G75*
G02*
X173078250Y-87583000I-93750J0D01*
G01*
X172890750Y-87583000D01*
G75*
G02*
X172797000Y-87489250I0J93750D01*
G01*
X172797000Y-87276750D01*
G75*
G02*
X172890750Y-87183000I93750J0D01*
G01*
X173078250Y-87183000D01*
G75*
G02*
X173172000Y-87276750I0J-93750D01*
G01*
G37*
G36*
G01*
X173172000Y-86626750D02*
X173172000Y-86839250D01*
G75*
G02*
X173078250Y-86933000I-93750J0D01*
G01*
X172890750Y-86933000D01*
G75*
G02*
X172797000Y-86839250I0J93750D01*
G01*
X172797000Y-86626750D01*
G75*
G02*
X172890750Y-86533000I93750J0D01*
G01*
X173078250Y-86533000D01*
G75*
G02*
X173172000Y-86626750I0J-93750D01*
G01*
G37*
G36*
G01*
X174947000Y-86626750D02*
X174947000Y-86839250D01*
G75*
G02*
X174853250Y-86933000I-93750J0D01*
G01*
X174665750Y-86933000D01*
G75*
G02*
X174572000Y-86839250I0J93750D01*
G01*
X174572000Y-86626750D01*
G75*
G02*
X174665750Y-86533000I93750J0D01*
G01*
X174853250Y-86533000D01*
G75*
G02*
X174947000Y-86626750I0J-93750D01*
G01*
G37*
G36*
G01*
X174947000Y-87276750D02*
X174947000Y-87489250D01*
G75*
G02*
X174853250Y-87583000I-93750J0D01*
G01*
X174665750Y-87583000D01*
G75*
G02*
X174572000Y-87489250I0J93750D01*
G01*
X174572000Y-87276750D01*
G75*
G02*
X174665750Y-87183000I93750J0D01*
G01*
X174853250Y-87183000D01*
G75*
G02*
X174947000Y-87276750I0J-93750D01*
G01*
G37*
G36*
G01*
X174947000Y-87926750D02*
X174947000Y-88139250D01*
G75*
G02*
X174853250Y-88233000I-93750J0D01*
G01*
X174665750Y-88233000D01*
G75*
G02*
X174572000Y-88139250I0J93750D01*
G01*
X174572000Y-87926750D01*
G75*
G02*
X174665750Y-87833000I93750J0D01*
G01*
X174853250Y-87833000D01*
G75*
G02*
X174947000Y-87926750I0J-93750D01*
G01*
G37*
%TD*%
%TO.C,U7*%
G36*
G01*
X161912000Y-87011000D02*
X161912000Y-87311000D01*
G75*
G02*
X161762000Y-87461000I-150000J0D01*
G01*
X160112000Y-87461000D01*
G75*
G02*
X159962000Y-87311000I0J150000D01*
G01*
X159962000Y-87011000D01*
G75*
G02*
X160112000Y-86861000I150000J0D01*
G01*
X161762000Y-86861000D01*
G75*
G02*
X161912000Y-87011000I0J-150000D01*
G01*
G37*
G36*
G01*
X161912000Y-85741000D02*
X161912000Y-86041000D01*
G75*
G02*
X161762000Y-86191000I-150000J0D01*
G01*
X160112000Y-86191000D01*
G75*
G02*
X159962000Y-86041000I0J150000D01*
G01*
X159962000Y-85741000D01*
G75*
G02*
X160112000Y-85591000I150000J0D01*
G01*
X161762000Y-85591000D01*
G75*
G02*
X161912000Y-85741000I0J-150000D01*
G01*
G37*
G36*
G01*
X161912000Y-84471000D02*
X161912000Y-84771000D01*
G75*
G02*
X161762000Y-84921000I-150000J0D01*
G01*
X160112000Y-84921000D01*
G75*
G02*
X159962000Y-84771000I0J150000D01*
G01*
X159962000Y-84471000D01*
G75*
G02*
X160112000Y-84321000I150000J0D01*
G01*
X161762000Y-84321000D01*
G75*
G02*
X161912000Y-84471000I0J-150000D01*
G01*
G37*
G36*
G01*
X161912000Y-83201000D02*
X161912000Y-83501000D01*
G75*
G02*
X161762000Y-83651000I-150000J0D01*
G01*
X160112000Y-83651000D01*
G75*
G02*
X159962000Y-83501000I0J150000D01*
G01*
X159962000Y-83201000D01*
G75*
G02*
X160112000Y-83051000I150000J0D01*
G01*
X161762000Y-83051000D01*
G75*
G02*
X161912000Y-83201000I0J-150000D01*
G01*
G37*
G36*
G01*
X166862000Y-83201000D02*
X166862000Y-83501000D01*
G75*
G02*
X166712000Y-83651000I-150000J0D01*
G01*
X165062000Y-83651000D01*
G75*
G02*
X164912000Y-83501000I0J150000D01*
G01*
X164912000Y-83201000D01*
G75*
G02*
X165062000Y-83051000I150000J0D01*
G01*
X166712000Y-83051000D01*
G75*
G02*
X166862000Y-83201000I0J-150000D01*
G01*
G37*
G36*
G01*
X166862000Y-84471000D02*
X166862000Y-84771000D01*
G75*
G02*
X166712000Y-84921000I-150000J0D01*
G01*
X165062000Y-84921000D01*
G75*
G02*
X164912000Y-84771000I0J150000D01*
G01*
X164912000Y-84471000D01*
G75*
G02*
X165062000Y-84321000I150000J0D01*
G01*
X166712000Y-84321000D01*
G75*
G02*
X166862000Y-84471000I0J-150000D01*
G01*
G37*
G36*
G01*
X166862000Y-85741000D02*
X166862000Y-86041000D01*
G75*
G02*
X166712000Y-86191000I-150000J0D01*
G01*
X165062000Y-86191000D01*
G75*
G02*
X164912000Y-86041000I0J150000D01*
G01*
X164912000Y-85741000D01*
G75*
G02*
X165062000Y-85591000I150000J0D01*
G01*
X166712000Y-85591000D01*
G75*
G02*
X166862000Y-85741000I0J-150000D01*
G01*
G37*
G36*
G01*
X166862000Y-87011000D02*
X166862000Y-87311000D01*
G75*
G02*
X166712000Y-87461000I-150000J0D01*
G01*
X165062000Y-87461000D01*
G75*
G02*
X164912000Y-87311000I0J150000D01*
G01*
X164912000Y-87011000D01*
G75*
G02*
X165062000Y-86861000I150000J0D01*
G01*
X166712000Y-86861000D01*
G75*
G02*
X166862000Y-87011000I0J-150000D01*
G01*
G37*
%TD*%
D23*
%TO.C,U6*%
X174478000Y-100108000D03*
G36*
G01*
X173603000Y-99045500D02*
X173603000Y-98295500D01*
G75*
G02*
X173665500Y-98233000I62500J0D01*
G01*
X173790500Y-98233000D01*
G75*
G02*
X173853000Y-98295500I0J-62500D01*
G01*
X173853000Y-99045500D01*
G75*
G02*
X173790500Y-99108000I-62500J0D01*
G01*
X173665500Y-99108000D01*
G75*
G02*
X173603000Y-99045500I0J62500D01*
G01*
G37*
G36*
G01*
X174103000Y-99045500D02*
X174103000Y-98295500D01*
G75*
G02*
X174165500Y-98233000I62500J0D01*
G01*
X174290500Y-98233000D01*
G75*
G02*
X174353000Y-98295500I0J-62500D01*
G01*
X174353000Y-99045500D01*
G75*
G02*
X174290500Y-99108000I-62500J0D01*
G01*
X174165500Y-99108000D01*
G75*
G02*
X174103000Y-99045500I0J62500D01*
G01*
G37*
G36*
G01*
X174603000Y-99045500D02*
X174603000Y-98295500D01*
G75*
G02*
X174665500Y-98233000I62500J0D01*
G01*
X174790500Y-98233000D01*
G75*
G02*
X174853000Y-98295500I0J-62500D01*
G01*
X174853000Y-99045500D01*
G75*
G02*
X174790500Y-99108000I-62500J0D01*
G01*
X174665500Y-99108000D01*
G75*
G02*
X174603000Y-99045500I0J62500D01*
G01*
G37*
G36*
G01*
X175103000Y-99045500D02*
X175103000Y-98295500D01*
G75*
G02*
X175165500Y-98233000I62500J0D01*
G01*
X175290500Y-98233000D01*
G75*
G02*
X175353000Y-98295500I0J-62500D01*
G01*
X175353000Y-99045500D01*
G75*
G02*
X175290500Y-99108000I-62500J0D01*
G01*
X175165500Y-99108000D01*
G75*
G02*
X175103000Y-99045500I0J62500D01*
G01*
G37*
G36*
G01*
X175478000Y-99420500D02*
X175478000Y-99295500D01*
G75*
G02*
X175540500Y-99233000I62500J0D01*
G01*
X176290500Y-99233000D01*
G75*
G02*
X176353000Y-99295500I0J-62500D01*
G01*
X176353000Y-99420500D01*
G75*
G02*
X176290500Y-99483000I-62500J0D01*
G01*
X175540500Y-99483000D01*
G75*
G02*
X175478000Y-99420500I0J62500D01*
G01*
G37*
G36*
G01*
X175478000Y-99920500D02*
X175478000Y-99795500D01*
G75*
G02*
X175540500Y-99733000I62500J0D01*
G01*
X176290500Y-99733000D01*
G75*
G02*
X176353000Y-99795500I0J-62500D01*
G01*
X176353000Y-99920500D01*
G75*
G02*
X176290500Y-99983000I-62500J0D01*
G01*
X175540500Y-99983000D01*
G75*
G02*
X175478000Y-99920500I0J62500D01*
G01*
G37*
G36*
G01*
X175478000Y-100420500D02*
X175478000Y-100295500D01*
G75*
G02*
X175540500Y-100233000I62500J0D01*
G01*
X176290500Y-100233000D01*
G75*
G02*
X176353000Y-100295500I0J-62500D01*
G01*
X176353000Y-100420500D01*
G75*
G02*
X176290500Y-100483000I-62500J0D01*
G01*
X175540500Y-100483000D01*
G75*
G02*
X175478000Y-100420500I0J62500D01*
G01*
G37*
G36*
G01*
X175478000Y-100920500D02*
X175478000Y-100795500D01*
G75*
G02*
X175540500Y-100733000I62500J0D01*
G01*
X176290500Y-100733000D01*
G75*
G02*
X176353000Y-100795500I0J-62500D01*
G01*
X176353000Y-100920500D01*
G75*
G02*
X176290500Y-100983000I-62500J0D01*
G01*
X175540500Y-100983000D01*
G75*
G02*
X175478000Y-100920500I0J62500D01*
G01*
G37*
G36*
G01*
X175103000Y-101920500D02*
X175103000Y-101170500D01*
G75*
G02*
X175165500Y-101108000I62500J0D01*
G01*
X175290500Y-101108000D01*
G75*
G02*
X175353000Y-101170500I0J-62500D01*
G01*
X175353000Y-101920500D01*
G75*
G02*
X175290500Y-101983000I-62500J0D01*
G01*
X175165500Y-101983000D01*
G75*
G02*
X175103000Y-101920500I0J62500D01*
G01*
G37*
G36*
G01*
X174603000Y-101920500D02*
X174603000Y-101170500D01*
G75*
G02*
X174665500Y-101108000I62500J0D01*
G01*
X174790500Y-101108000D01*
G75*
G02*
X174853000Y-101170500I0J-62500D01*
G01*
X174853000Y-101920500D01*
G75*
G02*
X174790500Y-101983000I-62500J0D01*
G01*
X174665500Y-101983000D01*
G75*
G02*
X174603000Y-101920500I0J62500D01*
G01*
G37*
G36*
G01*
X174103000Y-101920500D02*
X174103000Y-101170500D01*
G75*
G02*
X174165500Y-101108000I62500J0D01*
G01*
X174290500Y-101108000D01*
G75*
G02*
X174353000Y-101170500I0J-62500D01*
G01*
X174353000Y-101920500D01*
G75*
G02*
X174290500Y-101983000I-62500J0D01*
G01*
X174165500Y-101983000D01*
G75*
G02*
X174103000Y-101920500I0J62500D01*
G01*
G37*
G36*
G01*
X173603000Y-101920500D02*
X173603000Y-101170500D01*
G75*
G02*
X173665500Y-101108000I62500J0D01*
G01*
X173790500Y-101108000D01*
G75*
G02*
X173853000Y-101170500I0J-62500D01*
G01*
X173853000Y-101920500D01*
G75*
G02*
X173790500Y-101983000I-62500J0D01*
G01*
X173665500Y-101983000D01*
G75*
G02*
X173603000Y-101920500I0J62500D01*
G01*
G37*
G36*
G01*
X172603000Y-100920500D02*
X172603000Y-100795500D01*
G75*
G02*
X172665500Y-100733000I62500J0D01*
G01*
X173415500Y-100733000D01*
G75*
G02*
X173478000Y-100795500I0J-62500D01*
G01*
X173478000Y-100920500D01*
G75*
G02*
X173415500Y-100983000I-62500J0D01*
G01*
X172665500Y-100983000D01*
G75*
G02*
X172603000Y-100920500I0J62500D01*
G01*
G37*
G36*
G01*
X172603000Y-100420500D02*
X172603000Y-100295500D01*
G75*
G02*
X172665500Y-100233000I62500J0D01*
G01*
X173415500Y-100233000D01*
G75*
G02*
X173478000Y-100295500I0J-62500D01*
G01*
X173478000Y-100420500D01*
G75*
G02*
X173415500Y-100483000I-62500J0D01*
G01*
X172665500Y-100483000D01*
G75*
G02*
X172603000Y-100420500I0J62500D01*
G01*
G37*
G36*
G01*
X172603000Y-99920500D02*
X172603000Y-99795500D01*
G75*
G02*
X172665500Y-99733000I62500J0D01*
G01*
X173415500Y-99733000D01*
G75*
G02*
X173478000Y-99795500I0J-62500D01*
G01*
X173478000Y-99920500D01*
G75*
G02*
X173415500Y-99983000I-62500J0D01*
G01*
X172665500Y-99983000D01*
G75*
G02*
X172603000Y-99920500I0J62500D01*
G01*
G37*
G36*
G01*
X172603000Y-99420500D02*
X172603000Y-99295500D01*
G75*
G02*
X172665500Y-99233000I62500J0D01*
G01*
X173415500Y-99233000D01*
G75*
G02*
X173478000Y-99295500I0J-62500D01*
G01*
X173478000Y-99420500D01*
G75*
G02*
X173415500Y-99483000I-62500J0D01*
G01*
X172665500Y-99483000D01*
G75*
G02*
X172603000Y-99420500I0J62500D01*
G01*
G37*
%TD*%
%TO.C,U5*%
X155678000Y-75774000D03*
G36*
G01*
X154803000Y-74711500D02*
X154803000Y-73961500D01*
G75*
G02*
X154865500Y-73899000I62500J0D01*
G01*
X154990500Y-73899000D01*
G75*
G02*
X155053000Y-73961500I0J-62500D01*
G01*
X155053000Y-74711500D01*
G75*
G02*
X154990500Y-74774000I-62500J0D01*
G01*
X154865500Y-74774000D01*
G75*
G02*
X154803000Y-74711500I0J62500D01*
G01*
G37*
G36*
G01*
X155303000Y-74711500D02*
X155303000Y-73961500D01*
G75*
G02*
X155365500Y-73899000I62500J0D01*
G01*
X155490500Y-73899000D01*
G75*
G02*
X155553000Y-73961500I0J-62500D01*
G01*
X155553000Y-74711500D01*
G75*
G02*
X155490500Y-74774000I-62500J0D01*
G01*
X155365500Y-74774000D01*
G75*
G02*
X155303000Y-74711500I0J62500D01*
G01*
G37*
G36*
G01*
X155803000Y-74711500D02*
X155803000Y-73961500D01*
G75*
G02*
X155865500Y-73899000I62500J0D01*
G01*
X155990500Y-73899000D01*
G75*
G02*
X156053000Y-73961500I0J-62500D01*
G01*
X156053000Y-74711500D01*
G75*
G02*
X155990500Y-74774000I-62500J0D01*
G01*
X155865500Y-74774000D01*
G75*
G02*
X155803000Y-74711500I0J62500D01*
G01*
G37*
G36*
G01*
X156303000Y-74711500D02*
X156303000Y-73961500D01*
G75*
G02*
X156365500Y-73899000I62500J0D01*
G01*
X156490500Y-73899000D01*
G75*
G02*
X156553000Y-73961500I0J-62500D01*
G01*
X156553000Y-74711500D01*
G75*
G02*
X156490500Y-74774000I-62500J0D01*
G01*
X156365500Y-74774000D01*
G75*
G02*
X156303000Y-74711500I0J62500D01*
G01*
G37*
G36*
G01*
X156678000Y-75086500D02*
X156678000Y-74961500D01*
G75*
G02*
X156740500Y-74899000I62500J0D01*
G01*
X157490500Y-74899000D01*
G75*
G02*
X157553000Y-74961500I0J-62500D01*
G01*
X157553000Y-75086500D01*
G75*
G02*
X157490500Y-75149000I-62500J0D01*
G01*
X156740500Y-75149000D01*
G75*
G02*
X156678000Y-75086500I0J62500D01*
G01*
G37*
G36*
G01*
X156678000Y-75586500D02*
X156678000Y-75461500D01*
G75*
G02*
X156740500Y-75399000I62500J0D01*
G01*
X157490500Y-75399000D01*
G75*
G02*
X157553000Y-75461500I0J-62500D01*
G01*
X157553000Y-75586500D01*
G75*
G02*
X157490500Y-75649000I-62500J0D01*
G01*
X156740500Y-75649000D01*
G75*
G02*
X156678000Y-75586500I0J62500D01*
G01*
G37*
G36*
G01*
X156678000Y-76086500D02*
X156678000Y-75961500D01*
G75*
G02*
X156740500Y-75899000I62500J0D01*
G01*
X157490500Y-75899000D01*
G75*
G02*
X157553000Y-75961500I0J-62500D01*
G01*
X157553000Y-76086500D01*
G75*
G02*
X157490500Y-76149000I-62500J0D01*
G01*
X156740500Y-76149000D01*
G75*
G02*
X156678000Y-76086500I0J62500D01*
G01*
G37*
G36*
G01*
X156678000Y-76586500D02*
X156678000Y-76461500D01*
G75*
G02*
X156740500Y-76399000I62500J0D01*
G01*
X157490500Y-76399000D01*
G75*
G02*
X157553000Y-76461500I0J-62500D01*
G01*
X157553000Y-76586500D01*
G75*
G02*
X157490500Y-76649000I-62500J0D01*
G01*
X156740500Y-76649000D01*
G75*
G02*
X156678000Y-76586500I0J62500D01*
G01*
G37*
G36*
G01*
X156303000Y-77586500D02*
X156303000Y-76836500D01*
G75*
G02*
X156365500Y-76774000I62500J0D01*
G01*
X156490500Y-76774000D01*
G75*
G02*
X156553000Y-76836500I0J-62500D01*
G01*
X156553000Y-77586500D01*
G75*
G02*
X156490500Y-77649000I-62500J0D01*
G01*
X156365500Y-77649000D01*
G75*
G02*
X156303000Y-77586500I0J62500D01*
G01*
G37*
G36*
G01*
X155803000Y-77586500D02*
X155803000Y-76836500D01*
G75*
G02*
X155865500Y-76774000I62500J0D01*
G01*
X155990500Y-76774000D01*
G75*
G02*
X156053000Y-76836500I0J-62500D01*
G01*
X156053000Y-77586500D01*
G75*
G02*
X155990500Y-77649000I-62500J0D01*
G01*
X155865500Y-77649000D01*
G75*
G02*
X155803000Y-77586500I0J62500D01*
G01*
G37*
G36*
G01*
X155303000Y-77586500D02*
X155303000Y-76836500D01*
G75*
G02*
X155365500Y-76774000I62500J0D01*
G01*
X155490500Y-76774000D01*
G75*
G02*
X155553000Y-76836500I0J-62500D01*
G01*
X155553000Y-77586500D01*
G75*
G02*
X155490500Y-77649000I-62500J0D01*
G01*
X155365500Y-77649000D01*
G75*
G02*
X155303000Y-77586500I0J62500D01*
G01*
G37*
G36*
G01*
X154803000Y-77586500D02*
X154803000Y-76836500D01*
G75*
G02*
X154865500Y-76774000I62500J0D01*
G01*
X154990500Y-76774000D01*
G75*
G02*
X155053000Y-76836500I0J-62500D01*
G01*
X155053000Y-77586500D01*
G75*
G02*
X154990500Y-77649000I-62500J0D01*
G01*
X154865500Y-77649000D01*
G75*
G02*
X154803000Y-77586500I0J62500D01*
G01*
G37*
G36*
G01*
X153803000Y-76586500D02*
X153803000Y-76461500D01*
G75*
G02*
X153865500Y-76399000I62500J0D01*
G01*
X154615500Y-76399000D01*
G75*
G02*
X154678000Y-76461500I0J-62500D01*
G01*
X154678000Y-76586500D01*
G75*
G02*
X154615500Y-76649000I-62500J0D01*
G01*
X153865500Y-76649000D01*
G75*
G02*
X153803000Y-76586500I0J62500D01*
G01*
G37*
G36*
G01*
X153803000Y-76086500D02*
X153803000Y-75961500D01*
G75*
G02*
X153865500Y-75899000I62500J0D01*
G01*
X154615500Y-75899000D01*
G75*
G02*
X154678000Y-75961500I0J-62500D01*
G01*
X154678000Y-76086500D01*
G75*
G02*
X154615500Y-76149000I-62500J0D01*
G01*
X153865500Y-76149000D01*
G75*
G02*
X153803000Y-76086500I0J62500D01*
G01*
G37*
G36*
G01*
X153803000Y-75586500D02*
X153803000Y-75461500D01*
G75*
G02*
X153865500Y-75399000I62500J0D01*
G01*
X154615500Y-75399000D01*
G75*
G02*
X154678000Y-75461500I0J-62500D01*
G01*
X154678000Y-75586500D01*
G75*
G02*
X154615500Y-75649000I-62500J0D01*
G01*
X153865500Y-75649000D01*
G75*
G02*
X153803000Y-75586500I0J62500D01*
G01*
G37*
G36*
G01*
X153803000Y-75086500D02*
X153803000Y-74961500D01*
G75*
G02*
X153865500Y-74899000I62500J0D01*
G01*
X154615500Y-74899000D01*
G75*
G02*
X154678000Y-74961500I0J-62500D01*
G01*
X154678000Y-75086500D01*
G75*
G02*
X154615500Y-75149000I-62500J0D01*
G01*
X153865500Y-75149000D01*
G75*
G02*
X153803000Y-75086500I0J62500D01*
G01*
G37*
%TD*%
D24*
%TO.C,U4*%
X137278000Y-73724000D03*
D25*
X136328000Y-74724000D03*
X136328000Y-74224000D03*
X136328000Y-73724000D03*
X136328000Y-73224000D03*
X136328000Y-72724000D03*
X138228000Y-72724000D03*
X138228000Y-73224000D03*
X138228000Y-73724000D03*
X138228000Y-74224000D03*
X138228000Y-74724000D03*
%TD*%
D26*
%TO.C,TH1*%
X124460000Y-100584000D03*
D27*
X124460000Y-103124000D03*
%TD*%
D28*
%TO.C,SW1*%
X197528000Y-120124000D03*
X197528000Y-123524000D03*
%TD*%
D29*
%TO.C,Ref1*%
X197728000Y-73549000D03*
X191378000Y-73549000D03*
X197728000Y-67199000D03*
D30*
X194553000Y-70374000D03*
D29*
X191378000Y-67199000D03*
%TD*%
%TO.C,R10x1*%
G36*
G01*
X132567500Y-75454500D02*
X132567500Y-75929500D01*
G75*
G02*
X132330000Y-76167000I-237500J0D01*
G01*
X131830000Y-76167000D01*
G75*
G02*
X131592500Y-75929500I0J237500D01*
G01*
X131592500Y-75454500D01*
G75*
G02*
X131830000Y-75217000I237500J0D01*
G01*
X132330000Y-75217000D01*
G75*
G02*
X132567500Y-75454500I0J-237500D01*
G01*
G37*
G36*
G01*
X134392500Y-75454500D02*
X134392500Y-75929500D01*
G75*
G02*
X134155000Y-76167000I-237500J0D01*
G01*
X133655000Y-76167000D01*
G75*
G02*
X133417500Y-75929500I0J237500D01*
G01*
X133417500Y-75454500D01*
G75*
G02*
X133655000Y-75217000I237500J0D01*
G01*
X134155000Y-75217000D01*
G75*
G02*
X134392500Y-75454500I0J-237500D01*
G01*
G37*
%TD*%
%TO.C,R22*%
G36*
G01*
X178545500Y-91015000D02*
X178070500Y-91015000D01*
G75*
G02*
X177833000Y-90777500I0J237500D01*
G01*
X177833000Y-90277500D01*
G75*
G02*
X178070500Y-90040000I237500J0D01*
G01*
X178545500Y-90040000D01*
G75*
G02*
X178783000Y-90277500I0J-237500D01*
G01*
X178783000Y-90777500D01*
G75*
G02*
X178545500Y-91015000I-237500J0D01*
G01*
G37*
G36*
G01*
X178545500Y-92840000D02*
X178070500Y-92840000D01*
G75*
G02*
X177833000Y-92602500I0J237500D01*
G01*
X177833000Y-92102500D01*
G75*
G02*
X178070500Y-91865000I237500J0D01*
G01*
X178545500Y-91865000D01*
G75*
G02*
X178783000Y-92102500I0J-237500D01*
G01*
X178783000Y-92602500D01*
G75*
G02*
X178545500Y-92840000I-237500J0D01*
G01*
G37*
%TD*%
%TO.C,R21*%
G36*
G01*
X176513500Y-85530500D02*
X176038500Y-85530500D01*
G75*
G02*
X175801000Y-85293000I0J237500D01*
G01*
X175801000Y-84793000D01*
G75*
G02*
X176038500Y-84555500I237500J0D01*
G01*
X176513500Y-84555500D01*
G75*
G02*
X176751000Y-84793000I0J-237500D01*
G01*
X176751000Y-85293000D01*
G75*
G02*
X176513500Y-85530500I-237500J0D01*
G01*
G37*
G36*
G01*
X176513500Y-87355500D02*
X176038500Y-87355500D01*
G75*
G02*
X175801000Y-87118000I0J237500D01*
G01*
X175801000Y-86618000D01*
G75*
G02*
X176038500Y-86380500I237500J0D01*
G01*
X176513500Y-86380500D01*
G75*
G02*
X176751000Y-86618000I0J-237500D01*
G01*
X176751000Y-87118000D01*
G75*
G02*
X176513500Y-87355500I-237500J0D01*
G01*
G37*
%TD*%
%TO.C,R20*%
G36*
G01*
X178545500Y-87355500D02*
X178070500Y-87355500D01*
G75*
G02*
X177833000Y-87118000I0J237500D01*
G01*
X177833000Y-86618000D01*
G75*
G02*
X178070500Y-86380500I237500J0D01*
G01*
X178545500Y-86380500D01*
G75*
G02*
X178783000Y-86618000I0J-237500D01*
G01*
X178783000Y-87118000D01*
G75*
G02*
X178545500Y-87355500I-237500J0D01*
G01*
G37*
G36*
G01*
X178545500Y-89180500D02*
X178070500Y-89180500D01*
G75*
G02*
X177833000Y-88943000I0J237500D01*
G01*
X177833000Y-88443000D01*
G75*
G02*
X178070500Y-88205500I237500J0D01*
G01*
X178545500Y-88205500D01*
G75*
G02*
X178783000Y-88443000I0J-237500D01*
G01*
X178783000Y-88943000D01*
G75*
G02*
X178545500Y-89180500I-237500J0D01*
G01*
G37*
%TD*%
%TO.C,R12*%
G36*
G01*
X184641500Y-72830500D02*
X184166500Y-72830500D01*
G75*
G02*
X183929000Y-72593000I0J237500D01*
G01*
X183929000Y-72093000D01*
G75*
G02*
X184166500Y-71855500I237500J0D01*
G01*
X184641500Y-71855500D01*
G75*
G02*
X184879000Y-72093000I0J-237500D01*
G01*
X184879000Y-72593000D01*
G75*
G02*
X184641500Y-72830500I-237500J0D01*
G01*
G37*
G36*
G01*
X184641500Y-74655500D02*
X184166500Y-74655500D01*
G75*
G02*
X183929000Y-74418000I0J237500D01*
G01*
X183929000Y-73918000D01*
G75*
G02*
X184166500Y-73680500I237500J0D01*
G01*
X184641500Y-73680500D01*
G75*
G02*
X184879000Y-73918000I0J-237500D01*
G01*
X184879000Y-74418000D01*
G75*
G02*
X184641500Y-74655500I-237500J0D01*
G01*
G37*
%TD*%
%TO.C,R11*%
G36*
G01*
X187181500Y-72830500D02*
X186706500Y-72830500D01*
G75*
G02*
X186469000Y-72593000I0J237500D01*
G01*
X186469000Y-72093000D01*
G75*
G02*
X186706500Y-71855500I237500J0D01*
G01*
X187181500Y-71855500D01*
G75*
G02*
X187419000Y-72093000I0J-237500D01*
G01*
X187419000Y-72593000D01*
G75*
G02*
X187181500Y-72830500I-237500J0D01*
G01*
G37*
G36*
G01*
X187181500Y-74655500D02*
X186706500Y-74655500D01*
G75*
G02*
X186469000Y-74418000I0J237500D01*
G01*
X186469000Y-73918000D01*
G75*
G02*
X186706500Y-73680500I237500J0D01*
G01*
X187181500Y-73680500D01*
G75*
G02*
X187419000Y-73918000I0J-237500D01*
G01*
X187419000Y-74418000D01*
G75*
G02*
X187181500Y-74655500I-237500J0D01*
G01*
G37*
%TD*%
%TO.C,R9*%
G36*
G01*
X154919500Y-80534500D02*
X154919500Y-81009500D01*
G75*
G02*
X154682000Y-81247000I-237500J0D01*
G01*
X154182000Y-81247000D01*
G75*
G02*
X153944500Y-81009500I0J237500D01*
G01*
X153944500Y-80534500D01*
G75*
G02*
X154182000Y-80297000I237500J0D01*
G01*
X154682000Y-80297000D01*
G75*
G02*
X154919500Y-80534500I0J-237500D01*
G01*
G37*
G36*
G01*
X156744500Y-80534500D02*
X156744500Y-81009500D01*
G75*
G02*
X156507000Y-81247000I-237500J0D01*
G01*
X156007000Y-81247000D01*
G75*
G02*
X155769500Y-81009500I0J237500D01*
G01*
X155769500Y-80534500D01*
G75*
G02*
X156007000Y-80297000I237500J0D01*
G01*
X156507000Y-80297000D01*
G75*
G02*
X156744500Y-80534500I0J-237500D01*
G01*
G37*
%TD*%
%TO.C,R7*%
G36*
G01*
X154919500Y-82566500D02*
X154919500Y-83041500D01*
G75*
G02*
X154682000Y-83279000I-237500J0D01*
G01*
X154182000Y-83279000D01*
G75*
G02*
X153944500Y-83041500I0J237500D01*
G01*
X153944500Y-82566500D01*
G75*
G02*
X154182000Y-82329000I237500J0D01*
G01*
X154682000Y-82329000D01*
G75*
G02*
X154919500Y-82566500I0J-237500D01*
G01*
G37*
G36*
G01*
X156744500Y-82566500D02*
X156744500Y-83041500D01*
G75*
G02*
X156507000Y-83279000I-237500J0D01*
G01*
X156007000Y-83279000D01*
G75*
G02*
X155769500Y-83041500I0J237500D01*
G01*
X155769500Y-82566500D01*
G75*
G02*
X156007000Y-82329000I237500J0D01*
G01*
X156507000Y-82329000D01*
G75*
G02*
X156744500Y-82566500I0J-237500D01*
G01*
G37*
%TD*%
%TO.C,R5*%
G36*
G01*
X129560500Y-70849500D02*
X129560500Y-70374500D01*
G75*
G02*
X129798000Y-70137000I237500J0D01*
G01*
X130298000Y-70137000D01*
G75*
G02*
X130535500Y-70374500I0J-237500D01*
G01*
X130535500Y-70849500D01*
G75*
G02*
X130298000Y-71087000I-237500J0D01*
G01*
X129798000Y-71087000D01*
G75*
G02*
X129560500Y-70849500I0J237500D01*
G01*
G37*
G36*
G01*
X127735500Y-70849500D02*
X127735500Y-70374500D01*
G75*
G02*
X127973000Y-70137000I237500J0D01*
G01*
X128473000Y-70137000D01*
G75*
G02*
X128710500Y-70374500I0J-237500D01*
G01*
X128710500Y-70849500D01*
G75*
G02*
X128473000Y-71087000I-237500J0D01*
G01*
X127973000Y-71087000D01*
G75*
G02*
X127735500Y-70849500I0J237500D01*
G01*
G37*
%TD*%
%TO.C,R3*%
G36*
G01*
X129560500Y-73897500D02*
X129560500Y-73422500D01*
G75*
G02*
X129798000Y-73185000I237500J0D01*
G01*
X130298000Y-73185000D01*
G75*
G02*
X130535500Y-73422500I0J-237500D01*
G01*
X130535500Y-73897500D01*
G75*
G02*
X130298000Y-74135000I-237500J0D01*
G01*
X129798000Y-74135000D01*
G75*
G02*
X129560500Y-73897500I0J237500D01*
G01*
G37*
G36*
G01*
X127735500Y-73897500D02*
X127735500Y-73422500D01*
G75*
G02*
X127973000Y-73185000I237500J0D01*
G01*
X128473000Y-73185000D01*
G75*
G02*
X128710500Y-73422500I0J-237500D01*
G01*
X128710500Y-73897500D01*
G75*
G02*
X128473000Y-74135000I-237500J0D01*
G01*
X127973000Y-74135000D01*
G75*
G02*
X127735500Y-73897500I0J237500D01*
G01*
G37*
%TD*%
%TO.C,R2*%
G36*
G01*
X137139500Y-70374500D02*
X137139500Y-70849500D01*
G75*
G02*
X136902000Y-71087000I-237500J0D01*
G01*
X136402000Y-71087000D01*
G75*
G02*
X136164500Y-70849500I0J237500D01*
G01*
X136164500Y-70374500D01*
G75*
G02*
X136402000Y-70137000I237500J0D01*
G01*
X136902000Y-70137000D01*
G75*
G02*
X137139500Y-70374500I0J-237500D01*
G01*
G37*
G36*
G01*
X138964500Y-70374500D02*
X138964500Y-70849500D01*
G75*
G02*
X138727000Y-71087000I-237500J0D01*
G01*
X138227000Y-71087000D01*
G75*
G02*
X137989500Y-70849500I0J237500D01*
G01*
X137989500Y-70374500D01*
G75*
G02*
X138227000Y-70137000I237500J0D01*
G01*
X138727000Y-70137000D01*
G75*
G02*
X138964500Y-70374500I0J-237500D01*
G01*
G37*
%TD*%
%TO.C,R1*%
G36*
G01*
X140445500Y-72830500D02*
X139970500Y-72830500D01*
G75*
G02*
X139733000Y-72593000I0J237500D01*
G01*
X139733000Y-72093000D01*
G75*
G02*
X139970500Y-71855500I237500J0D01*
G01*
X140445500Y-71855500D01*
G75*
G02*
X140683000Y-72093000I0J-237500D01*
G01*
X140683000Y-72593000D01*
G75*
G02*
X140445500Y-72830500I-237500J0D01*
G01*
G37*
G36*
G01*
X140445500Y-74655500D02*
X139970500Y-74655500D01*
G75*
G02*
X139733000Y-74418000I0J237500D01*
G01*
X139733000Y-73918000D01*
G75*
G02*
X139970500Y-73680500I237500J0D01*
G01*
X140445500Y-73680500D01*
G75*
G02*
X140683000Y-73918000I0J-237500D01*
G01*
X140683000Y-74418000D01*
G75*
G02*
X140445500Y-74655500I-237500J0D01*
G01*
G37*
%TD*%
D31*
%TO.C,J3*%
X197783000Y-116664000D03*
X197783000Y-111584000D03*
X194473000Y-114124000D03*
%TD*%
D32*
%TO.C,J2*%
X198298000Y-106364000D03*
X197028000Y-106364000D03*
X198298000Y-105094000D03*
X197028000Y-105094000D03*
X198298000Y-103824000D03*
D33*
X197028000Y-103824000D03*
%TD*%
D34*
%TO.C,J1*%
X159364000Y-144402000D03*
X146564000Y-144402000D03*
D35*
X159364000Y-135902000D03*
X146564000Y-135902000D03*
D36*
X156964000Y-135152000D03*
X154964000Y-135152000D03*
X152964000Y-135152000D03*
X150964000Y-135152000D03*
X148964000Y-135152000D03*
X149464000Y-136652000D03*
X151964000Y-136652000D03*
X153964000Y-136652000D03*
X156464000Y-136652000D03*
%TD*%
D13*
%TO.C,Eh3*%
X196928000Y-57912000D03*
%TD*%
%TO.C,Eh2*%
X178028000Y-57912000D03*
%TD*%
%TO.C,Eh1*%
X157253000Y-57912000D03*
%TD*%
%TO.C,D3*%
G36*
G01*
X132605000Y-70374500D02*
X132605000Y-70849500D01*
G75*
G02*
X132367500Y-71087000I-237500J0D01*
G01*
X131792500Y-71087000D01*
G75*
G02*
X131555000Y-70849500I0J237500D01*
G01*
X131555000Y-70374500D01*
G75*
G02*
X131792500Y-70137000I237500J0D01*
G01*
X132367500Y-70137000D01*
G75*
G02*
X132605000Y-70374500I0J-237500D01*
G01*
G37*
G36*
G01*
X134355000Y-70374500D02*
X134355000Y-70849500D01*
G75*
G02*
X134117500Y-71087000I-237500J0D01*
G01*
X133542500Y-71087000D01*
G75*
G02*
X133305000Y-70849500I0J237500D01*
G01*
X133305000Y-70374500D01*
G75*
G02*
X133542500Y-70137000I237500J0D01*
G01*
X134117500Y-70137000D01*
G75*
G02*
X134355000Y-70374500I0J-237500D01*
G01*
G37*
%TD*%
%TO.C,D2*%
G36*
G01*
X132605000Y-73422500D02*
X132605000Y-73897500D01*
G75*
G02*
X132367500Y-74135000I-237500J0D01*
G01*
X131792500Y-74135000D01*
G75*
G02*
X131555000Y-73897500I0J237500D01*
G01*
X131555000Y-73422500D01*
G75*
G02*
X131792500Y-73185000I237500J0D01*
G01*
X132367500Y-73185000D01*
G75*
G02*
X132605000Y-73422500I0J-237500D01*
G01*
G37*
G36*
G01*
X134355000Y-73422500D02*
X134355000Y-73897500D01*
G75*
G02*
X134117500Y-74135000I-237500J0D01*
G01*
X133542500Y-74135000D01*
G75*
G02*
X133305000Y-73897500I0J237500D01*
G01*
X133305000Y-73422500D01*
G75*
G02*
X133542500Y-73185000I237500J0D01*
G01*
X134117500Y-73185000D01*
G75*
G02*
X134355000Y-73422500I0J-237500D01*
G01*
G37*
%TD*%
D37*
%TO.C,D1*%
X144780000Y-69249000D03*
X144780000Y-74249000D03*
%TD*%
%TO.C,C19*%
G36*
G01*
X170450500Y-122091500D02*
X170925500Y-122091500D01*
G75*
G02*
X171163000Y-122329000I0J-237500D01*
G01*
X171163000Y-122929000D01*
G75*
G02*
X170925500Y-123166500I-237500J0D01*
G01*
X170450500Y-123166500D01*
G75*
G02*
X170213000Y-122929000I0J237500D01*
G01*
X170213000Y-122329000D01*
G75*
G02*
X170450500Y-122091500I237500J0D01*
G01*
G37*
G36*
G01*
X170450500Y-120366500D02*
X170925500Y-120366500D01*
G75*
G02*
X171163000Y-120604000I0J-237500D01*
G01*
X171163000Y-121204000D01*
G75*
G02*
X170925500Y-121441500I-237500J0D01*
G01*
X170450500Y-121441500D01*
G75*
G02*
X170213000Y-121204000I0J237500D01*
G01*
X170213000Y-120604000D01*
G75*
G02*
X170450500Y-120366500I237500J0D01*
G01*
G37*
%TD*%
%TO.C,C18*%
G36*
G01*
X168490500Y-122091500D02*
X168965500Y-122091500D01*
G75*
G02*
X169203000Y-122329000I0J-237500D01*
G01*
X169203000Y-122929000D01*
G75*
G02*
X168965500Y-123166500I-237500J0D01*
G01*
X168490500Y-123166500D01*
G75*
G02*
X168253000Y-122929000I0J237500D01*
G01*
X168253000Y-122329000D01*
G75*
G02*
X168490500Y-122091500I237500J0D01*
G01*
G37*
G36*
G01*
X168490500Y-120366500D02*
X168965500Y-120366500D01*
G75*
G02*
X169203000Y-120604000I0J-237500D01*
G01*
X169203000Y-121204000D01*
G75*
G02*
X168965500Y-121441500I-237500J0D01*
G01*
X168490500Y-121441500D01*
G75*
G02*
X168253000Y-121204000I0J237500D01*
G01*
X168253000Y-120604000D01*
G75*
G02*
X168490500Y-120366500I237500J0D01*
G01*
G37*
%TD*%
%TO.C,C17*%
G36*
G01*
X158679000Y-120666500D02*
X158679000Y-121141500D01*
G75*
G02*
X158441500Y-121379000I-237500J0D01*
G01*
X157841500Y-121379000D01*
G75*
G02*
X157604000Y-121141500I0J237500D01*
G01*
X157604000Y-120666500D01*
G75*
G02*
X157841500Y-120429000I237500J0D01*
G01*
X158441500Y-120429000D01*
G75*
G02*
X158679000Y-120666500I0J-237500D01*
G01*
G37*
G36*
G01*
X160404000Y-120666500D02*
X160404000Y-121141500D01*
G75*
G02*
X160166500Y-121379000I-237500J0D01*
G01*
X159566500Y-121379000D01*
G75*
G02*
X159329000Y-121141500I0J237500D01*
G01*
X159329000Y-120666500D01*
G75*
G02*
X159566500Y-120429000I237500J0D01*
G01*
X160166500Y-120429000D01*
G75*
G02*
X160404000Y-120666500I0J-237500D01*
G01*
G37*
%TD*%
%TO.C,C14*%
G36*
G01*
X176038500Y-90087500D02*
X176513500Y-90087500D01*
G75*
G02*
X176751000Y-90325000I0J-237500D01*
G01*
X176751000Y-90925000D01*
G75*
G02*
X176513500Y-91162500I-237500J0D01*
G01*
X176038500Y-91162500D01*
G75*
G02*
X175801000Y-90925000I0J237500D01*
G01*
X175801000Y-90325000D01*
G75*
G02*
X176038500Y-90087500I237500J0D01*
G01*
G37*
G36*
G01*
X176038500Y-88362500D02*
X176513500Y-88362500D01*
G75*
G02*
X176751000Y-88600000I0J-237500D01*
G01*
X176751000Y-89200000D01*
G75*
G02*
X176513500Y-89437500I-237500J0D01*
G01*
X176038500Y-89437500D01*
G75*
G02*
X175801000Y-89200000I0J237500D01*
G01*
X175801000Y-88600000D01*
G75*
G02*
X176038500Y-88362500I237500J0D01*
G01*
G37*
%TD*%
%TO.C,C12*%
G36*
G01*
X173399500Y-90153500D02*
X173399500Y-89678500D01*
G75*
G02*
X173637000Y-89441000I237500J0D01*
G01*
X174237000Y-89441000D01*
G75*
G02*
X174474500Y-89678500I0J-237500D01*
G01*
X174474500Y-90153500D01*
G75*
G02*
X174237000Y-90391000I-237500J0D01*
G01*
X173637000Y-90391000D01*
G75*
G02*
X173399500Y-90153500I0J237500D01*
G01*
G37*
G36*
G01*
X171674500Y-90153500D02*
X171674500Y-89678500D01*
G75*
G02*
X171912000Y-89441000I237500J0D01*
G01*
X172512000Y-89441000D01*
G75*
G02*
X172749500Y-89678500I0J-237500D01*
G01*
X172749500Y-90153500D01*
G75*
G02*
X172512000Y-90391000I-237500J0D01*
G01*
X171912000Y-90391000D01*
G75*
G02*
X171674500Y-90153500I0J237500D01*
G01*
G37*
%TD*%
%TO.C,C10*%
G36*
G01*
X171379000Y-75454500D02*
X171379000Y-75929500D01*
G75*
G02*
X171141500Y-76167000I-237500J0D01*
G01*
X170541500Y-76167000D01*
G75*
G02*
X170304000Y-75929500I0J237500D01*
G01*
X170304000Y-75454500D01*
G75*
G02*
X170541500Y-75217000I237500J0D01*
G01*
X171141500Y-75217000D01*
G75*
G02*
X171379000Y-75454500I0J-237500D01*
G01*
G37*
G36*
G01*
X173104000Y-75454500D02*
X173104000Y-75929500D01*
G75*
G02*
X172866500Y-76167000I-237500J0D01*
G01*
X172266500Y-76167000D01*
G75*
G02*
X172029000Y-75929500I0J237500D01*
G01*
X172029000Y-75454500D01*
G75*
G02*
X172266500Y-75217000I237500J0D01*
G01*
X172866500Y-75217000D01*
G75*
G02*
X173104000Y-75454500I0J-237500D01*
G01*
G37*
%TD*%
%TO.C,C8*%
G36*
G01*
X135906500Y-77895500D02*
X136381500Y-77895500D01*
G75*
G02*
X136619000Y-78133000I0J-237500D01*
G01*
X136619000Y-78733000D01*
G75*
G02*
X136381500Y-78970500I-237500J0D01*
G01*
X135906500Y-78970500D01*
G75*
G02*
X135669000Y-78733000I0J237500D01*
G01*
X135669000Y-78133000D01*
G75*
G02*
X135906500Y-77895500I237500J0D01*
G01*
G37*
G36*
G01*
X135906500Y-76170500D02*
X136381500Y-76170500D01*
G75*
G02*
X136619000Y-76408000I0J-237500D01*
G01*
X136619000Y-77008000D01*
G75*
G02*
X136381500Y-77245500I-237500J0D01*
G01*
X135906500Y-77245500D01*
G75*
G02*
X135669000Y-77008000I0J237500D01*
G01*
X135669000Y-76408000D01*
G75*
G02*
X135906500Y-76170500I237500J0D01*
G01*
G37*
%TD*%
%TO.C,C7*%
G36*
G01*
X157750500Y-86177000D02*
X158225500Y-86177000D01*
G75*
G02*
X158463000Y-86414500I0J-237500D01*
G01*
X158463000Y-87014500D01*
G75*
G02*
X158225500Y-87252000I-237500J0D01*
G01*
X157750500Y-87252000D01*
G75*
G02*
X157513000Y-87014500I0J237500D01*
G01*
X157513000Y-86414500D01*
G75*
G02*
X157750500Y-86177000I237500J0D01*
G01*
G37*
G36*
G01*
X157750500Y-84452000D02*
X158225500Y-84452000D01*
G75*
G02*
X158463000Y-84689500I0J-237500D01*
G01*
X158463000Y-85289500D01*
G75*
G02*
X158225500Y-85527000I-237500J0D01*
G01*
X157750500Y-85527000D01*
G75*
G02*
X157513000Y-85289500I0J237500D01*
G01*
X157513000Y-84689500D01*
G75*
G02*
X157750500Y-84452000I237500J0D01*
G01*
G37*
%TD*%
%TO.C,C6*%
G36*
G01*
X171532500Y-96790500D02*
X171532500Y-97265500D01*
G75*
G02*
X171295000Y-97503000I-237500J0D01*
G01*
X170695000Y-97503000D01*
G75*
G02*
X170457500Y-97265500I0J237500D01*
G01*
X170457500Y-96790500D01*
G75*
G02*
X170695000Y-96553000I237500J0D01*
G01*
X171295000Y-96553000D01*
G75*
G02*
X171532500Y-96790500I0J-237500D01*
G01*
G37*
G36*
G01*
X173257500Y-96790500D02*
X173257500Y-97265500D01*
G75*
G02*
X173020000Y-97503000I-237500J0D01*
G01*
X172420000Y-97503000D01*
G75*
G02*
X172182500Y-97265500I0J237500D01*
G01*
X172182500Y-96790500D01*
G75*
G02*
X172420000Y-96553000I237500J0D01*
G01*
X173020000Y-96553000D01*
G75*
G02*
X173257500Y-96790500I0J-237500D01*
G01*
G37*
%TD*%
%TO.C,C5*%
G36*
G01*
X153091000Y-72406500D02*
X153091000Y-72881500D01*
G75*
G02*
X152853500Y-73119000I-237500J0D01*
G01*
X152253500Y-73119000D01*
G75*
G02*
X152016000Y-72881500I0J237500D01*
G01*
X152016000Y-72406500D01*
G75*
G02*
X152253500Y-72169000I237500J0D01*
G01*
X152853500Y-72169000D01*
G75*
G02*
X153091000Y-72406500I0J-237500D01*
G01*
G37*
G36*
G01*
X154816000Y-72406500D02*
X154816000Y-72881500D01*
G75*
G02*
X154578500Y-73119000I-237500J0D01*
G01*
X153978500Y-73119000D01*
G75*
G02*
X153741000Y-72881500I0J237500D01*
G01*
X153741000Y-72406500D01*
G75*
G02*
X153978500Y-72169000I237500J0D01*
G01*
X154578500Y-72169000D01*
G75*
G02*
X154816000Y-72406500I0J-237500D01*
G01*
G37*
%TD*%
%TO.C,C4*%
G36*
G01*
X142477500Y-72980500D02*
X142002500Y-72980500D01*
G75*
G02*
X141765000Y-72743000I0J237500D01*
G01*
X141765000Y-72143000D01*
G75*
G02*
X142002500Y-71905500I237500J0D01*
G01*
X142477500Y-71905500D01*
G75*
G02*
X142715000Y-72143000I0J-237500D01*
G01*
X142715000Y-72743000D01*
G75*
G02*
X142477500Y-72980500I-237500J0D01*
G01*
G37*
G36*
G01*
X142477500Y-74705500D02*
X142002500Y-74705500D01*
G75*
G02*
X141765000Y-74468000I0J237500D01*
G01*
X141765000Y-73868000D01*
G75*
G02*
X142002500Y-73630500I237500J0D01*
G01*
X142477500Y-73630500D01*
G75*
G02*
X142715000Y-73868000I0J-237500D01*
G01*
X142715000Y-74468000D01*
G75*
G02*
X142477500Y-74705500I-237500J0D01*
G01*
G37*
%TD*%
%TO.C,C1*%
G36*
G01*
X146574500Y-51786500D02*
X147049500Y-51786500D01*
G75*
G02*
X147287000Y-52024000I0J-237500D01*
G01*
X147287000Y-52624000D01*
G75*
G02*
X147049500Y-52861500I-237500J0D01*
G01*
X146574500Y-52861500D01*
G75*
G02*
X146337000Y-52624000I0J237500D01*
G01*
X146337000Y-52024000D01*
G75*
G02*
X146574500Y-51786500I237500J0D01*
G01*
G37*
G36*
G01*
X146574500Y-50061500D02*
X147049500Y-50061500D01*
G75*
G02*
X147287000Y-50299000I0J-237500D01*
G01*
X147287000Y-50899000D01*
G75*
G02*
X147049500Y-51136500I-237500J0D01*
G01*
X146574500Y-51136500D01*
G75*
G02*
X146337000Y-50899000I0J237500D01*
G01*
X146337000Y-50299000D01*
G75*
G02*
X146574500Y-50061500I237500J0D01*
G01*
G37*
%TD*%
M02*
